<?xml version="1.0" encoding="iso-8859-1"?>
<!-- Generator: Adobe Illustrator 16.0.0, SVG Export Plug-In . SVG Version: 6.00 Build 0)  -->
<!DOCTYPE svg PUBLIC "-//W3C//DTD SVG 1.1//EN" "http://www.w3.org/Graphics/SVG/1.1/DTD/svg11.dtd">
<svg version="1.1" id="Capa_1" xmlns="http://www.w3.org/2000/svg" xmlns:xlink="http://www.w3.org/1999/xlink" x="0px" y="0px"
	 width="34.835px" height="34.835px" viewBox="0 0 34.835 34.835" style="enable-background:new 0 0 34.835 34.835;"
	 xml:space="preserve">
<g>
	<path d="M27.545,0H7.293C6.604,0,6.045,0.559,6.045,1.248v18.74c0,0.688,0.559,1.246,1.248,1.246h2.984v12.354
		c0,0.688,0.559,1.246,1.246,1.246h11.79c0.688,0,1.246-0.56,1.246-1.246V21.232h2.983c0.688,0,1.248-0.561,1.248-1.246V1.248
		C28.791,0.558,28.232,0,27.545,0z M26.299,18.739H8.541V2.494h17.758V18.739z M9.569,11.535V6.449c0-0.688,0.559-1.246,1.248-1.246
		h5.496c0.688,0,1.246,0.559,1.246,1.246v5.086c0,0.689-0.559,1.248-1.246,1.248h-5.496C10.127,12.783,9.569,12.224,9.569,11.535z
		 M20.854,9.578V8.406c0-0.25,0.203-0.453,0.451-0.453h1.172c0.25,0,0.453,0.203,0.453,0.453v1.172c0,0.25-0.203,0.453-0.453,0.453
		h-1.172C21.057,10.031,20.854,9.828,20.854,9.578z M20.854,7.14V5.97c0-0.25,0.203-0.453,0.451-0.453h1.172
		c0.25,0,0.453,0.203,0.453,0.453v1.17c0,0.25-0.203,0.453-0.453,0.453h-1.172C21.057,7.592,20.854,7.39,20.854,7.14z
		 M23.285,12.015v-1.172c0-0.25,0.201-0.453,0.451-0.453h1.17c0.252,0,0.455,0.203,0.455,0.453v1.172
		c0,0.25-0.203,0.453-0.455,0.453h-1.17C23.486,12.467,23.285,12.265,23.285,12.015z M23.285,7.14V5.97
		c0-0.25,0.201-0.453,0.451-0.453h1.17c0.252,0,0.455,0.203,0.455,0.453v1.17c0,0.25-0.203,0.453-0.455,0.453h-1.17
		C23.486,7.592,23.285,7.39,23.285,7.14z M23.285,9.578V8.406c0-0.25,0.201-0.453,0.451-0.453h1.17c0.252,0,0.455,0.203,0.455,0.453
		v1.172c0,0.25-0.203,0.453-0.455,0.453h-1.17C23.486,10.031,23.285,9.828,23.285,9.578z M18.42,9.578V8.406
		c0-0.25,0.203-0.453,0.455-0.453h1.168c0.252,0,0.455,0.203,0.455,0.453v1.172c0,0.25-0.203,0.453-0.455,0.453h-1.168
		C18.623,10.031,18.42,9.828,18.42,9.578z M18.42,12.015v-1.172c0-0.25,0.203-0.453,0.455-0.453h1.168
		c0.252,0,0.455,0.203,0.455,0.453v1.172c0,0.25-0.203,0.453-0.455,0.453h-1.168C18.623,12.467,18.42,12.265,18.42,12.015z
		 M20.854,12.015v-1.172c0-0.25,0.203-0.453,0.451-0.453h1.172c0.25,0,0.453,0.203,0.453,0.453v1.172
		c0,0.25-0.203,0.453-0.453,0.453h-1.172C21.057,12.467,20.854,12.265,20.854,12.015z M18.42,7.14V5.97
		c0-0.25,0.203-0.453,0.455-0.453h1.168c0.252,0,0.455,0.203,0.455,0.453v1.17c0,0.25-0.203,0.453-0.455,0.453h-1.168
		C18.623,7.592,18.42,7.39,18.42,7.14z M17.043,14.856c0,0.438-0.355,0.795-0.794,0.795h-5.696c-0.438,0-0.793-0.355-0.793-0.795
		c0-0.438,0.355-0.793,0.793-0.793h5.696C16.687,14.063,17.043,14.418,17.043,14.856z M18.344,14.856
		c0-0.438,0.355-0.793,0.793-0.793h5.697c0.438,0,0.793,0.354,0.793,0.793s-0.355,0.795-0.793,0.795h-5.697
		C18.699,15.651,18.344,15.295,18.344,14.856z"/>
</g>
<g>
</g>
<g>
</g>
<g>
</g>
<g>
</g>
<g>
</g>
<g>
</g>
<g>
</g>
<g>
</g>
<g>
</g>
<g>
</g>
<g>
</g>
<g>
</g>
<g>
</g>
<g>
</g>
<g>
</g>
</svg>
