<?xml version="1.0" encoding="iso-8859-1"?>
<!-- Generator: Adobe Illustrator 16.0.0, SVG Export Plug-In . SVG Version: 6.00 Build 0)  -->
<!DOCTYPE svg PUBLIC "-//W3C//DTD SVG 1.1//EN" "http://www.w3.org/Graphics/SVG/1.1/DTD/svg11.dtd">
<svg version="1.1" id="Capa_1" xmlns="http://www.w3.org/2000/svg" xmlns:xlink="http://www.w3.org/1999/xlink" x="0px" y="0px"
	 width="37.962px" height="37.962px" viewBox="0 0 37.962 37.962" style="enable-background:new 0 0 37.962 37.962;"
	 xml:space="preserve">
<g>
	<g>
		<path d="M26.814,9.31c-0.154-0.665-0.748-1.162-1.459-1.162h-12.75c-0.829,0-1.5,0.672-1.5,1.5v2.423H1.5
			c-0.829,0-1.5,0.672-1.5,1.5v10.82c0,0.827,0.671,1.5,1.5,1.5h9.606v2.423c0,0.828,0.671,1.5,1.5,1.5h12.75
			c0.713,0,1.306-0.497,1.459-1.162V9.31z M6.173,20.822c-1.017,0-1.841-0.822-1.841-1.841c0-1.018,0.824-1.841,1.841-1.841
			s1.841,0.823,1.841,1.841C8.014,20,7.189,20.822,6.173,20.822z M11.798,18.981c0-1.018,0.825-1.841,1.841-1.841
			c1.016,0,1.842,0.823,1.842,1.841c0,1.019-0.825,1.841-1.841,1.841C12.624,20.822,11.798,20,11.798,18.981z M23.855,26.814h-9.75
			v-0.923h9.75V26.814z M19.265,18.981c0-1.018,0.823-1.841,1.84-1.841s1.842,0.823,1.842,1.841c0,1.019-0.824,1.841-1.842,1.841
			S19.265,20,19.265,18.981z M23.855,12.071h-9.75v-0.923h9.75V12.071z"/>
		<path d="M37.761,18.231l-3.124-5.41c-0.269-0.464-0.764-0.75-1.3-0.75H28.48v13.82h4.857c0.536,0,1.031-0.286,1.301-0.75
			l3.123-5.41C38.029,19.267,38.029,18.695,37.761,18.231z"/>
	</g>
</g>
<g>
</g>
<g>
</g>
<g>
</g>
<g>
</g>
<g>
</g>
<g>
</g>
<g>
</g>
<g>
</g>
<g>
</g>
<g>
</g>
<g>
</g>
<g>
</g>
<g>
</g>
<g>
</g>
<g>
</g>
</svg>
