<?xml version="1.0" encoding="iso-8859-1"?>
<!-- Generator: Adobe Illustrator 16.0.0, SVG Export Plug-In . SVG Version: 6.00 Build 0)  -->
<!DOCTYPE svg PUBLIC "-//W3C//DTD SVG 1.1//EN" "http://www.w3.org/Graphics/SVG/1.1/DTD/svg11.dtd">
<svg version="1.1" id="Capa_1" xmlns="http://www.w3.org/2000/svg" xmlns:xlink="http://www.w3.org/1999/xlink" x="0px" y="0px"
	 width="36.475px" height="36.475px" viewBox="0 0 36.475 36.475" style="enable-background:new 0 0 36.475 36.475;"
	 xml:space="preserve">
<g>
	<path d="M29.807,0H6.667C5.284,0,4.164,1.12,4.164,2.502v31.471c0,1.383,1.12,2.502,2.502,2.502h23.14
		c1.384,0,2.504-1.119,2.504-2.502V2.502C32.311,1.119,31.19,0,29.807,0z M25.535,8.875c-1.07,2.999-3.934,5.156-7.298,5.156
		c-3.364,0-6.226-2.157-7.298-5.156c-1.157-0.35-2.006-1.411-2.006-2.683c0-1.555,1.26-2.814,2.814-2.814
		c1.555,0,2.815,1.26,2.815,2.814c0,0.911-0.44,1.712-1.111,2.227c0.823,1.829,2.653,3.11,4.786,3.11s3.963-1.281,4.786-3.11
		c-0.671-0.515-1.111-1.315-1.111-2.227c0-1.555,1.262-2.814,2.815-2.814s2.813,1.26,2.813,2.814
		C27.543,7.464,26.692,8.525,25.535,8.875z"/>
</g>
<g>
</g>
<g>
</g>
<g>
</g>
<g>
</g>
<g>
</g>
<g>
</g>
<g>
</g>
<g>
</g>
<g>
</g>
<g>
</g>
<g>
</g>
<g>
</g>
<g>
</g>
<g>
</g>
<g>
</g>
</svg>
