<?xml version="1.0" encoding="iso-8859-1"?>
<!-- Generator: Adobe Illustrator 16.0.0, SVG Export Plug-In . SVG Version: 6.00 Build 0)  -->
<!DOCTYPE svg PUBLIC "-//W3C//DTD SVG 1.1//EN" "http://www.w3.org/Graphics/SVG/1.1/DTD/svg11.dtd">
<svg version="1.1" id="Capa_1" xmlns="http://www.w3.org/2000/svg" xmlns:xlink="http://www.w3.org/1999/xlink" x="0px" y="0px"
	 width="35.136px" height="35.136px" viewBox="0 0 35.136 35.136" style="enable-background:new 0 0 35.136 35.136;"
	 xml:space="preserve">
<g>
	<path d="M19.554,0.001c-9.688,0-17.568,7.88-17.568,17.567c0,9.687,7.881,17.567,17.568,17.567h2.268V0L19.554,0.001L19.554,0.001z
		 M13.909,24.855c1.094,0.217,2.229,0.377,3.379,0.484v3.215C15.935,27.531,14.796,26.273,13.909,24.855z M12.351,21.369
		c-0.352-1.219-0.542-2.494-0.542-3.801c0-1.306,0.19-2.582,0.542-3.799c1.413-0.421,3.069-0.753,4.937-0.94v9.48
		C15.421,22.121,13.764,21.79,12.351,21.369z M6.898,17.568c0-0.735,0.729-1.591,2.062-2.382c-0.112,0.782-0.173,1.577-0.173,2.382
		c0,0.805,0.061,1.6,0.173,2.381C7.628,19.16,6.898,18.303,6.898,17.568z M13.909,10.282c0.887-1.418,2.026-2.677,3.379-3.701v3.215
		C16.137,9.904,15.003,10.066,13.909,10.282z M13.283,6.154c-1.409,1.521-2.529,3.289-3.298,5.216
		c-0.876,0.326-1.689,0.695-2.417,1.109C8.715,9.787,10.738,7.56,13.283,6.154z M7.568,22.658c0.728,0.414,1.541,0.783,2.417,1.109
		c0.769,1.926,1.889,3.692,3.298,5.215C10.738,27.578,8.715,25.35,7.568,22.658z M33.15,24.297c0,3.716-1.604,6.104-4.656,6.729
		v1.994h-3.521v-1.994c-0.572-0.117-1.075-0.312-1.545-0.547v-8.061h0.959v2.152c0,1.955,0.859,2.66,2.229,2.66
		c1.368,0,2.229-0.705,2.229-2.66c0-3.367-3.002-4.819-5.418-7.112V4.728c0.466-0.247,0.97-0.455,1.545-0.582V2.113h3.521v2.034
		c3.052,0.626,4.616,2.974,4.616,6.69v0.862h-4.068v-1.136c0-1.956-0.783-2.698-2.149-2.698c-1.37,0-2.152,0.742-2.152,2.698
		C24.738,16.198,33.15,16.472,33.15,24.297z"/>
</g>
<g>
</g>
<g>
</g>
<g>
</g>
<g>
</g>
<g>
</g>
<g>
</g>
<g>
</g>
<g>
</g>
<g>
</g>
<g>
</g>
<g>
</g>
<g>
</g>
<g>
</g>
<g>
</g>
<g>
</g>
</svg>
