<?xml version="1.0" encoding="iso-8859-1"?>
<!-- Generator: Adobe Illustrator 16.0.0, SVG Export Plug-In . SVG Version: 6.00 Build 0)  -->
<!DOCTYPE svg PUBLIC "-//W3C//DTD SVG 1.1//EN" "http://www.w3.org/Graphics/SVG/1.1/DTD/svg11.dtd">
<svg version="1.1" id="Capa_1" xmlns="http://www.w3.org/2000/svg" xmlns:xlink="http://www.w3.org/1999/xlink" x="0px" y="0px"
	 width="41.488px" height="41.488px" viewBox="0 0 41.488 41.488" style="enable-background:new 0 0 41.488 41.488;"
	 xml:space="preserve">
<g>
	<path d="M27.353,18.59l-6.574-6.574h3.173V0h6.574v12.016h3.399L27.353,18.59z M39.166,23.031l-3.104,9.703
		c1.055,0.916,1.723,2.264,1.723,3.766c0,2.75-2.235,4.988-4.985,4.988c-2.58,0-4.709-1.969-4.964-4.482h-4.356
		c-0.254,2.514-2.383,4.482-4.962,4.482c-2.75,0-4.988-2.238-4.988-4.988c0-1.639,0.794-3.094,2.018-4.004l-5.345-12.885h-7.97
		v-3.855h9.255c0.779,0,1.481,0.469,1.78,1.189l4.303,10.373h4.231v-2.947h-1.7v-3.854H37.33c0.617,0,1.192,0.293,1.559,0.791
		C39.25,21.805,39.351,22.445,39.166,23.031z M32.402,31.529l0.549-1.717h-2.082V31.9C31.348,31.699,31.863,31.572,32.402,31.529z
		 M30.869,24.371v2.947h2.879l0.941-2.947H30.869z M24.294,27.318h4.082v-2.947h-4.082V27.318z M18.602,29.812l0.734,1.77
		c0.935,0.156,1.781,0.572,2.464,1.172v-2.941H18.602L18.602,29.812z M20.782,36.5c0-1.25-1.017-2.268-2.267-2.268
		s-2.268,1.018-2.268,2.268s1.018,2.268,2.268,2.268S20.782,37.75,20.782,36.5z M24.294,33.152h4.082v-3.34h-4.082V33.152z
		 M35.062,36.5c0-1.25-1.018-2.268-2.268-2.268s-2.268,1.018-2.268,2.268s1.018,2.268,2.268,2.268S35.062,37.75,35.062,36.5z"/>
</g>
<g>
</g>
<g>
</g>
<g>
</g>
<g>
</g>
<g>
</g>
<g>
</g>
<g>
</g>
<g>
</g>
<g>
</g>
<g>
</g>
<g>
</g>
<g>
</g>
<g>
</g>
<g>
</g>
<g>
</g>
</svg>
