<?xml version="1.0" encoding="iso-8859-1"?>
<!-- Generator: Adobe Illustrator 16.0.0, SVG Export Plug-In . SVG Version: 6.00 Build 0)  -->
<!DOCTYPE svg PUBLIC "-//W3C//DTD SVG 1.1//EN" "http://www.w3.org/Graphics/SVG/1.1/DTD/svg11.dtd">
<svg version="1.1" id="Capa_1" xmlns="http://www.w3.org/2000/svg" xmlns:xlink="http://www.w3.org/1999/xlink" x="0px" y="0px"
	 width="37.459px" height="37.459px" viewBox="0 0 37.459 37.459" style="enable-background:new 0 0 37.459 37.459;"
	 xml:space="preserve">
<g>
	<path d="M32.235,22.566c-1.664-2.217-5.858-8.541-7.104-10.428l2.455-6.348c0.178-0.463,0.065-0.985-0.283-1.336
		c-0.102-0.104-0.922-0.885-2.239-1.091V0.001H22.56v3.742c-0.413,0.188-0.817,0.438-1.219,0.754l-2.802,1.695l-3.246-1.961
		c-0.088-0.072-0.219-0.17-0.381-0.271V0H12.41v3.416c-0.818,0.092-1.645,0.42-2.462,0.984C9.467,4.734,9.281,5.356,9.502,5.899
		l2.688,6.634c-0.188,0.448-0.896,1.772-3.502,5.062c-0.616,0.68-7.65,8.688-6.211,17.327c0.04,0.25,0.156,0.479,0.332,0.662
		c0.068,0.07,1.715,1.752,4.293,1.752c0.761,0,1.525-0.146,2.277-0.436c0.526,0.186,1.371,0.408,2.342,0.408
		c0.8,0,1.543-0.15,2.216-0.453c0.638,0.27,1.678,0.604,2.871,0.604c0.749,0,1.458-0.133,2.114-0.396
		c0.501,0.123,1.333,0.285,2.245,0.285c0.897,0,1.701-0.152,2.396-0.453c0.594,0.168,1.604,0.398,2.646,0.398
		c0.826,0,1.549-0.143,2.158-0.424c0.487,0.092,1.277,0.209,2.158,0.209c1.856,0,3.297-0.498,4.279-1.479
		c0.229-0.229,0.358-0.531,0.366-0.854C35.182,34.422,35.346,26.709,32.235,22.566z M12.877,5.89c0.455,0,0.738,0.203,0.805,0.255
		c0.074,0.083,0.122,0.11,0.225,0.172l3.985,2.41c0.397,0.239,0.897,0.239,1.295,0l3.521-2.132c0.051-0.031,0.099-0.064,0.144-0.102
		c0.551-0.449,1.08-0.678,1.575-0.678c0.16,0,0.31,0.024,0.441,0.062l-1.996,5.16h-8.588l-2.039-5.035
		C12.465,5.928,12.676,5.89,12.877,5.89z M30.527,34.581c-1.093,0-2.025-0.235-2.031-0.238c-0.35-0.09-0.716-0.028-1.014,0.171
		c-0.277,0.186-0.719,0.282-1.271,0.282c-1.15,0-2.321-0.414-2.332-0.418c-0.354-0.129-0.746-0.092-1.069,0.104
		c-0.408,0.244-0.959,0.367-1.638,0.367c-1.035,0-1.953-0.295-1.959-0.297c-0.319-0.107-0.67-0.08-0.972,0.077
		c-0.423,0.22-0.903,0.33-1.432,0.33c-1.22,0-2.278-0.584-2.283-0.586c-0.192-0.108-0.405-0.164-0.62-0.164
		c-0.234,0-0.468,0.063-0.672,0.192c-0.423,0.271-0.934,0.406-1.512,0.406c-0.979,0-1.813-0.385-1.814-0.387
		c-0.34-0.164-0.736-0.166-1.076-0.004c-0.582,0.275-1.164,0.414-1.729,0.414c-1.032,0-1.83-0.473-2.223-0.764
		c-0.946-7.475,5.615-14.744,5.684-14.816c0.021-0.021,0.04-0.044,0.059-0.068c2.366-2.979,3.418-4.646,3.856-5.644h8.576
		c1.275,1.933,5.458,8.229,7.18,10.526c2.156,2.873,2.413,8.285,2.438,10.049C32.044,34.493,31.19,34.581,30.527,34.581z"/>
</g>
<g>
</g>
<g>
</g>
<g>
</g>
<g>
</g>
<g>
</g>
<g>
</g>
<g>
</g>
<g>
</g>
<g>
</g>
<g>
</g>
<g>
</g>
<g>
</g>
<g>
</g>
<g>
</g>
<g>
</g>
</svg>
