<?xml version="1.0" encoding="iso-8859-1"?>
<!-- Generator: Adobe Illustrator 16.0.0, SVG Export Plug-In . SVG Version: 6.00 Build 0)  -->
<!DOCTYPE svg PUBLIC "-//W3C//DTD SVG 1.1//EN" "http://www.w3.org/Graphics/SVG/1.1/DTD/svg11.dtd">
<svg version="1.1" id="Capa_1" xmlns="http://www.w3.org/2000/svg" xmlns:xlink="http://www.w3.org/1999/xlink" x="0px" y="0px"
	 width="31.535px" height="31.535px" viewBox="0 0 31.535 31.535" style="enable-background:new 0 0 31.535 31.535;"
	 xml:space="preserve">
<g>
	<path d="M13.428,8.68v22.855H4.776V16.568H0.332V8.679L13.428,8.68L13.428,8.68z M18.105,8.68v22.855h8.652V16.568h4.445V8.679
		L18.105,8.68L18.105,8.68z M24.016,0c-0.705,0-4.678,2.15-7.123,3.594c0.412,0.404,0.711,0.955,0.822,1.586
		c0.939-0.193,2.207-0.338,3.783-0.338c3.021,0,4.918,0.533,5.518,0.908c-0.6,0.375-2.494,0.908-5.518,0.908
		c-1.576,0-2.846-0.146-3.783-0.34c-0.09,0.506-0.299,0.957-0.59,1.326c1.699,0.401,3.734,0.438,4.373,0.438
		c1.154,0,6.92-0.111,6.92-2.334S25.17,0,24.016,0z M12.791,6.354C11.869,6.531,10.658,6.66,9.168,6.66
		c-3.023,0-4.918-0.533-5.52-0.908c0.602-0.375,2.494-0.907,5.52-0.907c1.49,0,2.701,0.129,3.623,0.305
		c0.123-0.646,0.438-1.213,0.879-1.613c-2.451-1.438-6.322-3.531-7.02-3.531c-1.154,0-4.402,3.526-4.402,5.75
		c0,2.223,5.766,2.334,6.92,2.334c0.621,0,2.562-0.031,4.23-0.404C13.102,7.313,12.887,6.86,12.791,6.354z M15.25,3.477
		c-1.107,0-2.006,1.019-2.006,2.273s0.896,2.271,2.006,2.271c1.105,0,2.006-1.019,2.006-2.271
		C17.256,4.496,16.357,3.477,15.25,3.477z"/>
</g>
<g>
</g>
<g>
</g>
<g>
</g>
<g>
</g>
<g>
</g>
<g>
</g>
<g>
</g>
<g>
</g>
<g>
</g>
<g>
</g>
<g>
</g>
<g>
</g>
<g>
</g>
<g>
</g>
<g>
</g>
</svg>
