<?xml version="1.0" encoding="iso-8859-1"?>
<!-- Generator: Adobe Illustrator 16.0.0, SVG Export Plug-In . SVG Version: 6.00 Build 0)  -->
<!DOCTYPE svg PUBLIC "-//W3C//DTD SVG 1.1//EN" "http://www.w3.org/Graphics/SVG/1.1/DTD/svg11.dtd">
<svg version="1.1" id="Capa_1" xmlns="http://www.w3.org/2000/svg" xmlns:xlink="http://www.w3.org/1999/xlink" x="0px" y="0px"
	 width="41.83px" height="41.83px" viewBox="0 0 41.83 41.83" style="enable-background:new 0 0 41.83 41.83;" xml:space="preserve"
	>
<g>
	<path d="M30.326,20.679c0.688,0.172,1.805-0.087,1.805-0.087c-2.751-2.577-2.148-6.788-2.148-6.788
		c-0.428-8.423-2.147-10.659-2.147-10.659c-1.979-4.123-8.854-3.008-8.854-3.008c-6.358,0.946-6.188,7.393-6.188,7.393
		c-0.171,7.906-4.469,9.023-4.469,9.023c1.116,1.031,4.383-0.173,4.383-0.173c-0.172,1.376-2.405,2.579-2.405,2.579
		c0.516,0.945,4.038,1.546,4.038,1.546c-5.327,0.431-5.671,6.104-5.671,6.104v6.531h24.837v-5.586
		C33.506,23.342,30.326,20.679,30.326,20.679z M16.144,9.419c0.174,0.26,2.236,0.518,2.236,0.518l0.171-1.289l0.431,0.602
		l0.172-0.859l0.859,1.291c1.118,0.857,6.359-0.346,6.359-0.346c0.343,1.461-0.258,4.557-0.258,4.557
		c-0.589,0.426-1.938,0.721-2.875,0.883c-0.185-0.328-0.531-0.553-0.937-0.553c-0.594,0-1.075,0.479-1.075,1.073
		c0,0.593,0.481,1.074,1.075,1.074c0.409,0,0.764-0.233,0.943-0.573l1.748-0.188c-0.688,2.148-3.781,2.923-3.781,2.923
		C15.458,16.64,16.144,9.419,16.144,9.419z M21.103,31.536c-2.406-1.03-5.617-11.399-5.617-11.399
		c0.861-0.06,2.924-1.721,2.924-1.721c1.662,1.375,2.863,1.49,2.863,1.49c1.09-0.059,2.868-1.262,2.868-1.262
		c0.055,0.461,2.463,1.834,2.463,1.834C26.26,25.177,21.103,31.536,21.103,31.536z M8.291,35.754c0-1.26,0.663-1.979,1.878-1.979
		c1.217,0,1.88,0.723,1.88,1.979v4.097c0,1.26-0.663,1.979-1.88,1.979c-1.215,0-1.878-0.722-1.878-1.979V35.754z M9.528,39.929
		c0,0.562,0.246,0.775,0.641,0.775s0.643-0.214,0.643-0.775v-4.255c0-0.562-0.248-0.774-0.643-0.774s-0.641,0.216-0.641,0.774
		V39.929z M13.952,36.036v5.704H12.84v-7.877h1.554l1.27,4.715v-4.715h1.104v7.877h-1.271L13.952,36.036z M19.401,33.863h1.238
		v6.752h2.039v1.125h-3.277V33.863z M23.221,33.863h1.235v7.877h-1.235V33.863z M26.459,36.036v5.704h-1.111v-7.877H26.9
		l1.271,4.715v-4.715h1.104v7.877h-1.271L26.459,36.036z M31.398,37.183h1.699v1.125h-1.699v2.31h2.141v1.125h-3.375v-7.878h3.375
		v1.125h-2.141V37.183L31.398,37.183z"/>
</g>
<g>
</g>
<g>
</g>
<g>
</g>
<g>
</g>
<g>
</g>
<g>
</g>
<g>
</g>
<g>
</g>
<g>
</g>
<g>
</g>
<g>
</g>
<g>
</g>
<g>
</g>
<g>
</g>
<g>
</g>
</svg>
