<?xml version="1.0" encoding="iso-8859-1"?>
<!-- Generator: Adobe Illustrator 16.0.0, SVG Export Plug-In . SVG Version: 6.00 Build 0)  -->
<!DOCTYPE svg PUBLIC "-//W3C//DTD SVG 1.1//EN" "http://www.w3.org/Graphics/SVG/1.1/DTD/svg11.dtd">
<svg version="1.1" id="Capa_1" xmlns="http://www.w3.org/2000/svg" xmlns:xlink="http://www.w3.org/1999/xlink" x="0px" y="0px"
	 width="35.135px" height="35.135px" viewBox="0 0 35.135 35.135" style="enable-background:new 0 0 35.135 35.135;"
	 xml:space="preserve">
<g>
	<path d="M32.021,7.575L18.443,0.223c-0.548-0.297-1.204-0.297-1.752,0L3.114,7.576C2.522,7.897,2.152,8.519,2.152,9.192v16.75
		c0,0.675,0.37,1.295,0.962,1.617l13.574,7.354c0.273,0.148,0.574,0.222,0.876,0.222c0.302,0,0.604-0.072,0.875-0.222l13.579-7.354
		c0.594-0.321,0.964-0.942,0.964-1.617V9.192C32.982,8.519,32.612,7.897,32.021,7.575z M17.564,14.455l-2.575-1.395l9.142-5.577
		l3.153,1.709L17.564,14.455z M17.567,3.928l2.823,1.529l-9.14,5.577l-3.4-1.843L17.567,3.928z M5.83,12.278l3.772,2.044v2.835
		c0,1.016,0.823,1.838,1.838,1.838s1.839-0.823,1.839-1.838v-0.844l2.45,1.328v12.567L5.83,24.848V12.278L5.83,12.278z"/>
</g>
<g>
</g>
<g>
</g>
<g>
</g>
<g>
</g>
<g>
</g>
<g>
</g>
<g>
</g>
<g>
</g>
<g>
</g>
<g>
</g>
<g>
</g>
<g>
</g>
<g>
</g>
<g>
</g>
<g>
</g>
</svg>
