<?xml version="1.0" encoding="iso-8859-1"?>
<!-- Generator: Adobe Illustrator 16.0.0, SVG Export Plug-In . SVG Version: 6.00 Build 0)  -->
<!DOCTYPE svg PUBLIC "-//W3C//DTD SVG 1.1//EN" "http://www.w3.org/Graphics/SVG/1.1/DTD/svg11.dtd">
<svg version="1.1" id="Capa_1" xmlns="http://www.w3.org/2000/svg" xmlns:xlink="http://www.w3.org/1999/xlink" x="0px" y="0px"
	 width="39.243px" height="39.243px" viewBox="0 0 39.243 39.243" style="enable-background:new 0 0 39.243 39.243;"
	 xml:space="preserve">
<g>
	<path d="M10.576,15.304c0.271,0.654,0.493,1.143,0.8,1.429c1.422,4.643,5.093,7.854,8.993,7.843
		c3.883-0.014,7.508-3.254,8.878-7.909c0.301-0.289,0.518-0.775,0.779-1.424c0.067-0.166,0.131-0.323,0.18-0.424
		c0.526-1.087,0.345-2.264-0.39-2.837c0-0.036,0-0.071,0-0.106C29.796,6.114,29.044-0.03,20.287,0
		c-8.824,0.029-9.543,5.914-9.523,11.939c0,0.036,0.001,0.072,0.001,0.107c-0.731,0.58-0.904,1.758-0.371,2.84
		C10.444,14.985,10.508,15.14,10.576,15.304z M29.037,14.252c-0.065,0.138-0.139,0.314-0.214,0.499
		c-0.109,0.269-0.332,0.817-0.465,0.965c-0.147,0.084-0.256,0.225-0.302,0.39c-1.166,4.209-4.329,7.158-7.692,7.168
		c-3.381,0.012-6.59-2.914-7.803-7.115c-0.048-0.166-0.159-0.304-0.307-0.387c-0.136-0.148-0.366-0.699-0.479-0.969
		c-0.076-0.183-0.148-0.356-0.216-0.494c-0.281-0.572-0.197-1.149,0.066-1.283l0.026-0.01c0.145-0.053,0.26-0.156,0.334-0.282
		l1.528,0.236c0.146,0.022,0.29-0.057,0.348-0.192l0.965-2.231c1.094,0.262,5.232,1.197,8.475,1.187
		c1.007-0.003,1.841-0.101,2.484-0.289l0.612,1.479c0.051,0.125,0.172,0.202,0.3,0.201c0.029,0,0.059-0.004,0.087-0.012l1.78-0.5
		c0.07,0.157,0.201,0.285,0.371,0.347l0.023,0.008C29.227,13.101,29.314,13.679,29.037,14.252z M36.445,38.49
		c0.001,0.357-0.288,0.649-0.647,0.65L4.963,39.243c-0.359,0.001-0.65-0.289-0.651-0.646c-0.014-4.19,0.698-7.661,2.123-10.388
		c0.288,0.438,0.592,0.882,0.915,1.328l0.063,0.087l0.074,0.074c0.053,0.052,1.317,1.288,3.296,1.281
		c1.789-0.007,3.512-0.974,5.121-2.873c0.289-0.292,0.468-0.712,0.493-1.156c0.021-0.372-0.063-0.771-0.251-1.195
		c1.292,0.438,2.725,0.676,4.196,0.671c3.277-0.012,6.29-1.18,8.06-3.124c0.21-0.23,0.554-0.281,0.82-0.117
		C33.855,26.029,36.422,31.464,36.445,38.49z M8.402,28.776c-5.678-6.646-5.604-13.413-5.604-13.413
		c0.22-3.628,4.512-3.789,5.192-3.489c0.976,0.43,1.215,3.622,1.14,4.085c-0.097,0.595-2.313,0.857-2.313,0.857
		c0.86,3.548,3.731,8.093,3.731,8.093c0.873-0.995,2.08-1.319,2.08-1.319c2.368,0.963,2.34,3.597,2.34,3.597
		C11.28,31.6,9.497,30.058,8.402,28.776z"/>
</g>
<g>
</g>
<g>
</g>
<g>
</g>
<g>
</g>
<g>
</g>
<g>
</g>
<g>
</g>
<g>
</g>
<g>
</g>
<g>
</g>
<g>
</g>
<g>
</g>
<g>
</g>
<g>
</g>
<g>
</g>
</svg>
