<?xml version="1.0" encoding="iso-8859-1"?>
<!-- Generator: Adobe Illustrator 16.0.0, SVG Export Plug-In . SVG Version: 6.00 Build 0)  -->
<!DOCTYPE svg PUBLIC "-//W3C//DTD SVG 1.1//EN" "http://www.w3.org/Graphics/SVG/1.1/DTD/svg11.dtd">
<svg version="1.1" id="Capa_1" xmlns="http://www.w3.org/2000/svg" xmlns:xlink="http://www.w3.org/1999/xlink" x="0px" y="0px"
	 width="36.172px" height="36.171px" viewBox="0 0 36.172 36.171" style="enable-background:new 0 0 36.172 36.171;"
	 xml:space="preserve">
<g>
	<path d="M17.167,25.107c-0.827-1.31-2.074-2.32-3.552-2.854L9.246,0.376H0V4.72h5.861l3.41,17.424
		c-2.873,0.861-4.972,3.527-4.972,6.678c0,3.847,3.128,6.974,6.972,6.974c3.632,0,6.624-2.793,6.942-6.344h17.959v-4.345H17.167
		L17.167,25.107z M11.271,31.451c-1.45,0-2.628-1.18-2.628-2.629s1.179-2.629,2.628-2.629c1.449,0,2.628,1.18,2.628,2.629
		S12.72,31.451,11.271,31.451z"/>
	<polygon points="23.92,9.668 23.92,15.918 21.586,14.252 19.252,15.918 19.252,9.668 9.669,9.668 9.669,26.502 26.502,26.502 
		26.502,9.668 	"/>
</g>
<g>
</g>
<g>
</g>
<g>
</g>
<g>
</g>
<g>
</g>
<g>
</g>
<g>
</g>
<g>
</g>
<g>
</g>
<g>
</g>
<g>
</g>
<g>
</g>
<g>
</g>
<g>
</g>
<g>
</g>
</svg>
