<?xml version="1.0" encoding="iso-8859-1"?>
<!-- Generator: Adobe Illustrator 16.0.0, SVG Export Plug-In . SVG Version: 6.00 Build 0)  -->
<!DOCTYPE svg PUBLIC "-//W3C//DTD SVG 1.1//EN" "http://www.w3.org/Graphics/SVG/1.1/DTD/svg11.dtd">
<svg version="1.1" id="Capa_1" xmlns="http://www.w3.org/2000/svg" xmlns:xlink="http://www.w3.org/1999/xlink" x="0px" y="0px"
	 width="43.092px" height="43.092px" viewBox="0 0 43.092 43.092" style="enable-background:new 0 0 43.092 43.092;"
	 xml:space="preserve">
<g>
	<path d="M23.988,21.363h-4.896c0.543-0.877,1.414-1.461,2.41-1.474c0.011,0,0.021-0.001,0.031-0.001
		C22.541,19.89,23.436,20.474,23.988,21.363z M35.379,8.242v28.386c0,1.588-1.287,2.875-2.875,2.875h-1.229v0.335
		c0,1.794-1.459,3.254-3.254,3.254H15.069c-1.794,0-3.253-1.46-3.253-3.254v-0.335h-1.228c-1.588,0-2.875-1.287-2.875-2.875V8.242
		c0-1.587,1.287-2.874,2.875-2.874h3.603c1.213-3.121,3.991-5.327,7.249-5.367C21.469,0.001,21.498,0,21.528,0
		c3.283,0,6.125,2.209,7.369,5.368h3.609C34.093,5.368,35.379,6.655,35.379,8.242z M17.394,5.368h8.287
		c-0.938-1.506-2.45-2.493-4.155-2.493c-0.018,0-0.035,0-0.053,0C19.788,2.896,18.314,3.883,17.394,5.368z M14.964,11.454
		c1.422,0,2.575-1.152,2.575-2.576c0-0.754-0.33-1.426-0.847-1.896c-0.178,0.622-0.29,1.279-0.282,1.973
		c0.009,0.793-0.627,1.444-1.42,1.454c-0.007,0-0.012,0-0.018,0c-0.785,0-1.427-0.632-1.437-1.42
		c-0.009-0.831,0.092-1.635,0.276-2.401c-0.841,0.424-1.422,1.286-1.422,2.291C12.389,10.302,13.541,11.454,14.964,11.454z
		 M29.722,23.064c0-0.938-0.761-1.701-1.698-1.701h-2.136c-0.731-1.865-2.413-3.171-4.354-3.171c-0.017,0-0.034,0.001-0.052,0.001
		c-1.924,0.023-3.566,1.326-4.284,3.17h-2.129c-0.938,0-1.699,0.763-1.699,1.701v16.773c0,0.938,0.761,1.699,1.699,1.699h12.955
		c0.938,0,1.698-0.762,1.698-1.699V23.064L29.722,23.064z M30.703,8.878c0-1.011-0.59-1.877-1.438-2.299
		c0.176,0.709,0.281,1.449,0.29,2.217c0.011,0.794-0.626,1.444-1.42,1.455c-0.005,0-0.012,0-0.019,0
		c-0.784,0-1.426-0.632-1.437-1.42c-0.009-0.647-0.125-1.259-0.295-1.841c-0.511,0.471-0.836,1.139-0.836,1.888
		c0,1.424,1.153,2.576,2.575,2.576C29.551,11.454,30.703,10.302,30.703,8.878z M18.511,23.484c0.006,0.469-0.371,0.854-0.839,0.857
		c-0.003,0-0.007,0-0.01,0c-0.464,0-0.844-0.374-0.849-0.839c-0.006-0.492,0.054-0.967,0.163-1.42
		c-0.497,0.251-0.841,0.76-0.841,1.354c0,0.842,0.682,1.521,1.522,1.521c0.84,0,1.522-0.684,1.522-1.521
		c0-0.445-0.195-0.845-0.5-1.121C18.572,22.688,18.506,23.072,18.511,23.484z M26.107,22.079c0.104,0.42,0.166,0.856,0.172,1.311
		c0.006,0.47-0.369,0.854-0.84,0.859c-0.002,0-0.006,0-0.011,0c-0.463,0-0.843-0.373-0.848-0.839
		c-0.005-0.383-0.074-0.743-0.175-1.088c-0.301,0.276-0.493,0.673-0.493,1.115c0,0.84,0.681,1.521,1.522,1.521
		c0.84,0,1.521-0.682,1.521-1.521C26.958,22.841,26.609,22.329,26.107,22.079z"/>
</g>
<g>
</g>
<g>
</g>
<g>
</g>
<g>
</g>
<g>
</g>
<g>
</g>
<g>
</g>
<g>
</g>
<g>
</g>
<g>
</g>
<g>
</g>
<g>
</g>
<g>
</g>
<g>
</g>
<g>
</g>
</svg>
