<?xml version="1.0" encoding="iso-8859-1"?>
<!-- Generator: Adobe Illustrator 16.0.0, SVG Export Plug-In . SVG Version: 6.00 Build 0)  -->
<!DOCTYPE svg PUBLIC "-//W3C//DTD SVG 1.1//EN" "http://www.w3.org/Graphics/SVG/1.1/DTD/svg11.dtd">
<svg version="1.1" id="Capa_1" xmlns="http://www.w3.org/2000/svg" xmlns:xlink="http://www.w3.org/1999/xlink" x="0px" y="0px"
	 width="37.384px" height="37.384px" viewBox="0 0 37.384 37.384" style="enable-background:new 0 0 37.384 37.384;"
	 xml:space="preserve">
<g>
	<path d="M24.447,20.191l-9.994-5.25c0,0-0.625,0.966-1.517,2.279l10.429,5.221L24.447,20.191z"/>
	<path d="M20.824,17.4c-0.614-0.812-2.48-1.771-3.867-2.407c-0.354,0.791-0.639,1.713-0.811,2.705
		c-0.312,1.8-0.201,3.509,0.219,4.693c0.08-0.006,0.172-0.007,0.248-0.016c1.092-0.127,3.168-0.036,4.021-0.992
		c0.534-0.6,0.792-1.557,0.782-2.482C21.411,18.281,21.061,17.712,20.824,17.4z"/>
	<path d="M19.777,13.004c0,0-4.898,2.867-3.726,6.139c0.608,1.695,1.306,2.631,4.733,5.244c0.461-1.369,0.729-2.945,0.729-4.611
		c0-2.642-0.671-5.066-1.725-6.776C19.785,12.999,19.781,13.002,19.777,13.004z"/>
	<path d="M24.052,32.482c0.188-1.092,0.489-2.096,0.862-2.98c-0.34-0.143-0.557-0.229-0.557-0.229s-4.395-4.947-3.696-10.635
		c0.625-5.094,5.5-10.833,7.25-13.599L17.129,0c-0.914,1.299-6.836,10.889-7.656,11.862c1.383,2.027,2.232,4.91,2.232,8.16
		c0,2.137-0.369,4.115-1.014,5.797c0,0,5.57,8.547,8.388,10.319c1.142,0.718,3.288,1.161,5.034,1.246
		C23.779,36.02,23.734,34.312,24.052,32.482z"/>
</g>
<g>
</g>
<g>
</g>
<g>
</g>
<g>
</g>
<g>
</g>
<g>
</g>
<g>
</g>
<g>
</g>
<g>
</g>
<g>
</g>
<g>
</g>
<g>
</g>
<g>
</g>
<g>
</g>
<g>
</g>
</svg>
