<?xml version="1.0" encoding="iso-8859-1"?>
<!-- Generator: Adobe Illustrator 16.0.0, SVG Export Plug-In . SVG Version: 6.00 Build 0)  -->
<!DOCTYPE svg PUBLIC "-//W3C//DTD SVG 1.1//EN" "http://www.w3.org/Graphics/SVG/1.1/DTD/svg11.dtd">
<svg version="1.1" id="Capa_1" xmlns="http://www.w3.org/2000/svg" xmlns:xlink="http://www.w3.org/1999/xlink" x="0px" y="0px"
	 width="31.969px" height="31.969px" viewBox="0 0 31.969 31.969" style="enable-background:new 0 0 31.969 31.969;"
	 xml:space="preserve">
<g>
	<path d="M30.403,1.355C30.397,0.605,29.787,0,29.036,0H7.025C6.629,0,6.253,0.172,5.993,0.471L2.094,4.959
		C1.651,5.188,1.347,5.647,1.347,6.176v24.428c0,0.756,0.612,1.365,1.368,1.365h22.013c0.482,0,0.906-0.25,1.148-0.629l4.422-5.211
		c0.211-0.25,0.328-0.566,0.324-0.896L30.403,1.355z M19.409,11.74c-0.799,1.604-2.973,2.727-5.596,2.727s-4.796-1.123-5.597-2.727
		c-0.734-0.244-1.264-0.937-1.264-1.75c0-1.021,0.826-1.846,1.845-1.846s1.845,0.825,1.845,1.846c0,0.537-0.232,1.021-0.6,1.356
		c0.689,0.798,2.156,1.378,3.771,1.378c1.615,0,3.083-0.58,3.772-1.378c-0.369-0.336-0.602-0.819-0.602-1.356
		c0-1.021,0.827-1.846,1.845-1.846c1.021,0,1.847,0.825,1.847,1.846C20.672,10.803,20.144,11.496,19.409,11.74z M24.296,4.808H5.847
		l1.801-2.072h18.317L24.296,4.808z M26.092,26.855V6.935l1.606-1.994l0.183,19.807L26.092,26.855z"/>
</g>
<g>
</g>
<g>
</g>
<g>
</g>
<g>
</g>
<g>
</g>
<g>
</g>
<g>
</g>
<g>
</g>
<g>
</g>
<g>
</g>
<g>
</g>
<g>
</g>
<g>
</g>
<g>
</g>
<g>
</g>
</svg>
