<?xml version="1.0" encoding="iso-8859-1"?>
<!-- Generator: Adobe Illustrator 16.0.0, SVG Export Plug-In . SVG Version: 6.00 Build 0)  -->
<!DOCTYPE svg PUBLIC "-//W3C//DTD SVG 1.1//EN" "http://www.w3.org/Graphics/SVG/1.1/DTD/svg11.dtd">
<svg version="1.1" id="Capa_1" xmlns="http://www.w3.org/2000/svg" xmlns:xlink="http://www.w3.org/1999/xlink" x="0px" y="0px"
	 width="36.564px" height="36.564px" viewBox="0 0 36.564 36.564" style="enable-background:new 0 0 36.564 36.564;"
	 xml:space="preserve">
<g>
	<path d="M10.923,11.302V1.978c0-0.141,0.01-0.276,0.02-0.416c0.216-0.245,1.633-3.02,10.229-0.537
		c0.967,0.277,3.146,0.836,4.465,0.766c0.002,0.062,0.006,0.124,0.006,0.188v9.324c0,3.414-3.295,6.18-7.358,6.18
		C14.222,17.483,10.923,14.716,10.923,11.302z M10.783,22.144h4.511l-2.123-4.161h-2.664c-1.389,0-2.619,0.896-3.045,2.218
		L4.45,29.535c-0.314,0.977-0.143,2.04,0.459,2.867c0.604,0.828,1.564,1.315,2.588,1.315h3.286V22.144L10.783,22.144z
		 M32.114,29.535L29.105,20.2c-0.427-1.321-1.658-2.218-3.048-2.218h-2.664l-2.12,4.161h4.508v11.574h3.286
		c1.023,0,1.984-0.486,2.589-1.314C32.258,31.575,32.429,30.512,32.114,29.535z M9.337,36.564h17.89v-2.134H9.337V36.564z"/>
</g>
<g>
</g>
<g>
</g>
<g>
</g>
<g>
</g>
<g>
</g>
<g>
</g>
<g>
</g>
<g>
</g>
<g>
</g>
<g>
</g>
<g>
</g>
<g>
</g>
<g>
</g>
<g>
</g>
<g>
</g>
</svg>
