<?xml version="1.0" encoding="iso-8859-1"?>
<!-- Generator: Adobe Illustrator 16.0.0, SVG Export Plug-In . SVG Version: 6.00 Build 0)  -->
<!DOCTYPE svg PUBLIC "-//W3C//DTD SVG 1.1//EN" "http://www.w3.org/Graphics/SVG/1.1/DTD/svg11.dtd">
<svg version="1.1" id="Capa_1" xmlns="http://www.w3.org/2000/svg" xmlns:xlink="http://www.w3.org/1999/xlink" x="0px" y="0px"
	 width="35.676px" height="35.676px" viewBox="0 0 35.676 35.676" style="enable-background:new 0 0 35.676 35.676;"
	 xml:space="preserve">
<g>
	<path d="M17.838,8.795C14.859,8.795,0,9.042,0,13.921v7.833c0,4.881,14.859,5.127,17.838,5.127c2.979,0,17.838-0.246,17.838-5.127
		v-7.833C35.676,9.042,20.816,8.795,17.838,8.795z M17.838,11.768c8.195,0,13.186,1.291,14.59,2.153
		c-1.404,0.864-6.395,2.154-14.59,2.154c-8.195,0-13.186-1.291-14.59-2.154C4.652,13.059,9.643,11.768,17.838,11.768z
		 M16.352,19.031v4.863c-2.229-0.045-4.19-0.187-5.885-0.384v-4.842C12.721,18.908,14.867,18.998,16.352,19.031z M19.324,19.031
		c1.484-0.033,3.631-0.123,5.885-0.361v4.844c-1.693,0.197-3.656,0.338-5.885,0.383V19.031z M2.973,17.053
		c1.281,0.532,2.863,0.924,4.521,1.209v4.801c-2.551-0.484-4.08-1.084-4.521-1.513V17.053z M28.182,23.064v-4.802
		c1.658-0.286,3.242-0.677,4.521-1.209v4.498C32.262,21.979,30.732,22.576,28.182,23.064z"/>
</g>
<g>
</g>
<g>
</g>
<g>
</g>
<g>
</g>
<g>
</g>
<g>
</g>
<g>
</g>
<g>
</g>
<g>
</g>
<g>
</g>
<g>
</g>
<g>
</g>
<g>
</g>
<g>
</g>
<g>
</g>
</svg>
