<?xml version="1.0" encoding="iso-8859-1"?>
<!-- Generator: Adobe Illustrator 16.0.0, SVG Export Plug-In . SVG Version: 6.00 Build 0)  -->
<!DOCTYPE svg PUBLIC "-//W3C//DTD SVG 1.1//EN" "http://www.w3.org/Graphics/SVG/1.1/DTD/svg11.dtd">
<svg version="1.1" id="Capa_1" xmlns="http://www.w3.org/2000/svg" xmlns:xlink="http://www.w3.org/1999/xlink" x="0px" y="0px"
	 width="39.641px" height="39.641px" viewBox="0 0 39.641 39.641" style="enable-background:new 0 0 39.641 39.641;"
	 xml:space="preserve">
<g>
	<path d="M39.27,9.042l-6.41-5.168c-0.18-0.143-0.399-0.221-0.628-0.221H7.41c-0.229,0-0.449,0.078-0.628,0.221l-6.41,5.168
		C0.043,9.31-0.084,9.753,0.057,10.153C0.2,10.551,0.578,10.819,1,10.819h1.486v23.168c0,1.104,0.896,2,2,2h30.668
		c1.104,0,2-0.896,2-2V10.819h1.485c0.425,0,0.803-0.269,0.943-0.666C39.725,9.753,39.598,9.307,39.27,9.042z M33.155,31.987h-2.166
		v-8.334c0-0.828-0.672-1.5-1.5-1.5h-5.335c-0.828,0-1.5,0.672-1.5,1.5v8.334H6.487V12.653h0.758v1.471
		c0,3.187,2.07,3.529,2.961,3.529c0.891,0,2.963-0.344,2.963-3.529v-1.471h0.486v1.471c0,3.187,2.07,3.529,2.961,3.529
		s2.961-0.344,2.961-3.529v-1.471h0.487v1.471c0,3.187,2.072,3.529,2.963,3.529c0.89,0,2.961-0.344,2.961-3.529v-1.471h0.485v1.471
		c0,3.187,2.072,3.529,2.964,3.529c0.891,0,2.961-0.344,2.961-3.529v-1.471h0.758V31.987z M10.64,25.63v0.644
		c0,0.772-0.387,1.215-1.131,1.215c-0.746,0-1.133-0.44-1.133-1.215v-2.515c0-0.771,0.387-1.215,1.133-1.215
		c0.744,0,1.131,0.44,1.131,1.215v0.472H9.923V23.71c0-0.346-0.151-0.477-0.394-0.477s-0.394,0.131-0.394,0.477v2.609
		c0,0.345,0.15,0.469,0.394,0.469c0.241,0,0.394-0.124,0.394-0.469V25.63H10.64L10.64,25.63z M11.106,22.597h0.76v4.144h1.249v0.688
		h-2.009V22.597z M13.384,23.759c0-0.771,0.408-1.215,1.152-1.215c0.746,0,1.153,0.44,1.153,1.215v2.515
		c0,0.772-0.407,1.215-1.153,1.215c-0.744,0-1.152-0.44-1.152-1.215V23.759z M14.146,26.319c0,0.345,0.151,0.477,0.393,0.477
		c0.242,0,0.394-0.132,0.394-0.477V23.71c0-0.346-0.15-0.477-0.394-0.477c-0.241,0-0.393,0.131-0.393,0.477V26.319z M17.204,22.544
		c0.739,0,1.118,0.44,1.118,1.215v0.151h-0.718v-0.2c0-0.346-0.138-0.477-0.38-0.477c-0.241,0-0.379,0.131-0.379,0.477
		c0,0.993,1.483,1.182,1.483,2.562c0,0.771-0.387,1.215-1.132,1.215c-0.746,0-1.133-0.44-1.133-1.215v-0.298h0.718v0.347
		c0,0.347,0.151,0.469,0.394,0.469s0.395-0.122,0.395-0.469c0-0.995-1.484-1.183-1.484-2.562
		C16.087,22.984,16.467,22.544,17.204,22.544z M19.526,24.634h1.042v0.688h-1.042v1.416h1.313v0.688h-2.073v-4.832h2.073v0.688
		h-1.313V24.634z"/>
</g>
<g>
</g>
<g>
</g>
<g>
</g>
<g>
</g>
<g>
</g>
<g>
</g>
<g>
</g>
<g>
</g>
<g>
</g>
<g>
</g>
<g>
</g>
<g>
</g>
<g>
</g>
<g>
</g>
<g>
</g>
</svg>
