<?xml version="1.0" encoding="iso-8859-1"?>
<!-- Generator: Adobe Illustrator 16.0.0, SVG Export Plug-In . SVG Version: 6.00 Build 0)  -->
<!DOCTYPE svg PUBLIC "-//W3C//DTD SVG 1.1//EN" "http://www.w3.org/Graphics/SVG/1.1/DTD/svg11.dtd">
<svg version="1.1" id="Capa_1" xmlns="http://www.w3.org/2000/svg" xmlns:xlink="http://www.w3.org/1999/xlink" x="0px" y="0px"
	 width="36.714px" height="36.714px" viewBox="0 0 36.714 36.714" style="enable-background:new 0 0 36.714 36.714;"
	 xml:space="preserve">
<g>
	<path d="M20.733,23.085c-0.235-1.323-1.901-2.244-4.034-2.723l0.021-1.741c1.831-0.524,3.145-1.438,3.161-2.729l0.029-2.354
		l-0.035,0.021c-0.269-1.498-2.361-2.479-4.892-2.888l0.023-2.033l-0.035,0.02c-0.354-1.979-3.896-3.058-7.415-3.103
		c-3.673-0.052-7.4,1.022-7.527,3.169H0.027L0,10.791c-0.021,1.699,2.2,2.803,4.924,3.242l-0.021,1.604
		c-1.788,0.514-3.08,1.396-3.154,2.646l-0.005,0.001l-0.026,2.068c-0.021,1.52,1.75,2.561,4.067,3.078l-0.024,1.793
		c0,0.034,0.004,0.069,0.005,0.104c-1.565,0.525-2.661,1.365-2.729,2.514H3.031l-0.028,2.065c-0.027,2.207,3.725,3.408,7.446,3.458
		c3.72,0.049,7.505-1.056,7.535-3.258l0.026-2.091c1.604-0.541,2.715-1.408,2.729-2.6l0.029-2.354L20.733,23.085z M1.748,8.835
		c0.007-0.479,2.045-1.609,5.789-1.562c3.75,0.049,5.756,1.236,5.748,1.713c-0.005,0.475-2.045,1.609-5.787,1.561
		C3.75,10.496,1.742,9.31,1.748,8.835z M7.446,14.25c2.876,0.037,5.787-0.613,6.978-1.929c2.468,0.341,3.769,1.185,3.764,1.568
		c-0.005,0.471-2.021,1.597-5.727,1.56c-0.974-0.201-2.035-0.314-3.099-0.334c-1.077-0.24-1.843-0.574-2.28-0.875
		C7.203,14.246,7.325,14.248,7.446,14.25z M3.464,18.393c0.002-0.286,0.738-0.809,2.134-1.169c1.251,1.229,4.007,1.891,6.75,1.928
		c0.741,0.01,1.485-0.027,2.204-0.107c-0.791,0.507-2.612,1.1-5.342,1.062C5.464,20.055,3.457,18.869,3.464,18.393z M10.498,29.665
		c-3.746-0.054-5.754-1.238-5.746-1.715c0.002-0.265,0.631-0.729,1.826-1.084c1.305,1.154,3.973,1.776,6.627,1.813
		c0.947,0.012,1.897-0.055,2.791-0.188C15.307,29.019,13.421,29.704,10.498,29.665z M13.599,24.978
		c-0.96-0.188-1.999-0.294-3.036-0.31c-0.072,0-0.146,0-0.218,0c-1.17-0.25-1.99-0.606-2.438-0.924
		c0.414,0.033,0.833,0.055,1.254,0.062c2.805,0.032,5.645-0.582,6.887-1.831c1.969,0.391,3,1.099,2.997,1.438
		C19.039,23.877,17.125,24.958,13.599,24.978z M36.683,13.688l0.029-2.354l-0.037,0.021c-0.074-0.427-0.299-0.808-0.637-1.147
		c0.4-0.408,0.637-0.881,0.645-1.422l0.029-2.353l-0.037,0.02c-0.354-1.979-3.896-3.057-7.414-3.103
		c-3.672-0.051-7.4,1.023-7.526,3.169L21.729,6.52l-0.026,2.066c-0.009,0.568,0.237,1.07,0.668,1.504
		c-0.377,0.385-0.604,0.826-0.637,1.33h-0.005l-0.026,2.066c-0.011,0.738,0.405,1.363,1.098,1.87
		c-0.633,0.46-1.024,1.026-1.063,1.699l-0.007,0.002l-0.027,2.068c-0.009,0.7,0.365,1.3,0.998,1.794
		c-0.574,0.444-0.929,0.984-0.966,1.621H21.73l-0.027,2.065c-0.009,0.658,0.321,1.228,0.885,1.702
		c-0.508,0.428-0.814,0.938-0.853,1.528H21.73l-0.027,2.066c-0.027,2.207,3.725,3.408,7.445,3.458
		c3.721,0.047,7.505-1.056,7.535-3.258l0.03-2.354l-0.037,0.021c-0.092-0.513-0.396-0.959-0.854-1.349
		c0.534-0.447,0.853-0.987,0.859-1.621l0.029-2.353l-0.037,0.021c-0.098-0.551-0.442-1.03-0.967-1.438
		c0.604-0.468,0.965-1.038,0.975-1.711l0.029-2.355l-0.037,0.021c-0.104-0.586-0.488-1.092-1.067-1.517
		C36.271,14.994,36.673,14.398,36.683,13.688z M29.238,5.067c3.751,0.05,5.756,1.237,5.748,1.713
		c-0.004,0.416-1.574,1.341-4.486,1.527c-0.41-0.032-0.822-0.054-1.234-0.058c-0.436-0.008-0.868,0.004-1.299,0.028
		c-2.95-0.257-4.521-1.231-4.518-1.651C23.457,6.15,25.494,5.02,29.238,5.067z M29.147,12.044c1.966,0.023,3.945-0.271,5.387-0.881
		c0.302,0.201,0.454,0.389,0.452,0.521c-0.004,0.475-2.044,1.608-5.788,1.562c-3.745-0.054-5.754-1.238-5.749-1.715
		c0.004-0.124,0.145-0.293,0.415-0.474C25.28,11.682,27.216,12.019,29.147,12.044z M34.986,28.104
		c-0.004,0.476-2.044,1.607-5.788,1.562c-3.745-0.054-5.754-1.238-5.749-1.715c0.004-0.176,0.283-0.438,0.824-0.703
		c1.367,0.52,3.124,0.797,4.874,0.818c1.783,0.021,3.581-0.219,4.972-0.72C34.694,27.631,34.989,27.918,34.986,28.104z
		 M34.986,22.801c-0.004,0.479-2.044,1.611-5.788,1.562c-3.745-0.053-5.754-1.236-5.749-1.713c0.004-0.197,0.361-0.513,1.051-0.81
		c1.332,0.468,2.992,0.718,4.647,0.738c1.688,0.021,3.39-0.195,4.747-0.643C34.619,22.26,34.989,22.599,34.986,22.801z
		 M34.986,17.318c-0.004,0.475-2.044,1.612-5.788,1.561c-3.745-0.053-5.754-1.237-5.749-1.713c0.004-0.219,0.434-0.574,1.258-0.892
		c1.295,0.421,2.869,0.647,4.44,0.669c1.604,0.021,3.219-0.173,4.54-0.576C34.546,16.713,34.989,17.097,34.986,17.318z"/>
</g>
<g>
</g>
<g>
</g>
<g>
</g>
<g>
</g>
<g>
</g>
<g>
</g>
<g>
</g>
<g>
</g>
<g>
</g>
<g>
</g>
<g>
</g>
<g>
</g>
<g>
</g>
<g>
</g>
<g>
</g>
</svg>
