<?xml version="1.0" encoding="iso-8859-1"?>
<!-- Generator: Adobe Illustrator 16.0.0, SVG Export Plug-In . SVG Version: 6.00 Build 0)  -->
<!DOCTYPE svg PUBLIC "-//W3C//DTD SVG 1.1//EN" "http://www.w3.org/Graphics/SVG/1.1/DTD/svg11.dtd">
<svg version="1.1" id="Capa_1" xmlns="http://www.w3.org/2000/svg" xmlns:xlink="http://www.w3.org/1999/xlink" x="0px" y="0px"
	 width="33.133px" height="33.133px" viewBox="0 0 33.133 33.133" style="enable-background:new 0 0 33.133 33.133;"
	 xml:space="preserve">
<g>
	<path d="M27.092,9.624h-6.258c1.512-1.01,3.117-2.253,3.635-3.256c0.529-1.031,0.627-2.208,0.271-3.313
		c-0.354-1.104-1.115-2.005-2.148-2.537c-1.029-0.53-2.207-0.627-3.312-0.273c-1.104,0.354-2.004,1.118-2.537,2.149
		c-0.062,0.125-0.119,0.267-0.171,0.421c-0.062-0.19-0.13-0.363-0.209-0.511c-0.987-1.855-3.155-2.737-5.155-2.096
		C10.96,0.287,10.72,0.39,10.489,0.512C9.466,1.057,8.716,1.969,8.376,3.078c-0.338,1.11-0.225,2.285,0.32,3.31
		c0.536,1.006,2.191,2.241,3.73,3.235H6.043H1.788v9.179h4.256v14.331h8.284V9.623h4.479v23.51h8.283V18.802h4.256V9.623
		L27.092,9.624L27.092,9.624z M14.631,8.29c-1.848-1.124-3.588-2.378-3.908-2.98c-0.258-0.483-0.312-1.037-0.15-1.561
		c0.159-0.523,0.514-0.953,0.997-1.211c0.108-0.058,0.224-0.105,0.34-0.144c0.942-0.302,1.964,0.114,2.431,0.99
		C14.66,3.986,14.729,6.13,14.631,8.29z M18.563,8.354c-0.129-2.159-0.092-4.303,0.224-4.91c0.25-0.487,0.674-0.847,1.196-1.014
		c0.521-0.167,1.074-0.122,1.562,0.128c0.484,0.25,0.848,0.675,1.014,1.196c0.168,0.521,0.119,1.076-0.129,1.563
		C22.116,5.925,20.395,7.204,18.563,8.354z"/>
</g>
<g>
</g>
<g>
</g>
<g>
</g>
<g>
</g>
<g>
</g>
<g>
</g>
<g>
</g>
<g>
</g>
<g>
</g>
<g>
</g>
<g>
</g>
<g>
</g>
<g>
</g>
<g>
</g>
<g>
</g>
</svg>
