<?xml version="1.0" encoding="iso-8859-1"?>
<!-- Generator: Adobe Illustrator 16.0.0, SVG Export Plug-In . SVG Version: 6.00 Build 0)  -->
<!DOCTYPE svg PUBLIC "-//W3C//DTD SVG 1.1//EN" "http://www.w3.org/Graphics/SVG/1.1/DTD/svg11.dtd">
<svg version="1.1" id="Capa_1" xmlns="http://www.w3.org/2000/svg" xmlns:xlink="http://www.w3.org/1999/xlink" x="0px" y="0px"
	 width="39.641px" height="39.641px" viewBox="0 0 39.641 39.641" style="enable-background:new 0 0 39.641 39.641;"
	 xml:space="preserve">
<g>
	<path d="M19.538,13.757c-0.126-0.19-0.34-0.307-0.568-0.307h-2.779l0.972-1.457c0.196-0.293,0.116-0.688-0.178-0.885
		c-0.293-0.195-0.689-0.117-0.887,0.178l-1.442,2.164H9.663L8.22,11.286c-0.194-0.295-0.591-0.373-0.886-0.178
		c-0.293,0.195-0.372,0.592-0.176,0.885l0.971,1.457h-2.78c-0.228,0-0.44,0.115-0.566,0.307c-0.126,0.189-0.147,0.433-0.06,0.644
		l3.039,7.107c0.107,0.252,0.354,0.414,0.626,0.414h7.544c0.273,0,0.521-0.162,0.626-0.414l3.039-7.107
		C19.686,14.188,19.664,13.946,19.538,13.757z M9.035,14.813l0.613,0.918c0.123,0.186,0.325,0.285,0.531,0.285
		c0.122,0,0.245-0.035,0.354-0.107c0.294-0.195,0.372-0.592,0.178-0.885l-0.142-0.211h1.078v1.666H7.091l-0.713-1.666H9.035z
		 M11.648,18.531h-3.68L7.53,17.5h4.118V18.531z M12.67,17.501h4.118l-0.439,1.031H12.67V17.501z M8.407,19.552h3.241v1.009H8.836
		L8.407,19.552z M12.67,20.561v-1.009h3.241l-0.431,1.009H12.67z M17.224,16.479h-4.556v-1.666h1.077l-0.14,0.211
		c-0.196,0.293-0.117,0.688,0.177,0.885c0.107,0.072,0.23,0.107,0.354,0.107c0.206,0,0.408-0.101,0.532-0.285l0.612-0.918h2.655
		L17.224,16.479z M33.564,17.955l4.027,6.155l2.049,1.795l-4.311,4.92l-1.811-1.631c0,0-5.634-1.205-7.142-2.314
		c-1.347-0.992,0.621-2.262,0.621-2.262l-6.033-5.831l1.306-1.483l5.812,3.912c1.022-1.274,1.778-0.795,1.778-0.795
		c-0.045-1.396,1.562-1.165,1.562-1.165s-0.105-0.45-0.037-0.577C32.154,17.263,33.564,17.955,33.564,17.955z M21.124,30.571
		c3.309,0.367,6.133,1.219,8,2.359v1.983H5.8V32.93c1.867-1.144,4.694-1.992,8-2.359V28.85H1.515C0.679,28.85,0,28.172,0,27.336
		V6.245c0-0.838,0.679-1.518,1.515-1.518h31.894c0.836,0,1.517,0.68,1.517,1.518v11.797l-0.61-0.934l-0.271-0.133
		c-0.097-0.047-0.604-0.279-1.263-0.279c-0.313,0-0.608,0.059-0.891,0.162V7.757H3.034v18.062h21.812
		c-0.01,0.072-0.02,0.143-0.021,0.213c-0.012,0.383,0.094,1.117,0.912,1.723c0.521,0.385,1.393,0.76,2.364,1.099h-6.979
		L21.124,30.571L21.124,30.571z"/>
</g>
<g>
</g>
<g>
</g>
<g>
</g>
<g>
</g>
<g>
</g>
<g>
</g>
<g>
</g>
<g>
</g>
<g>
</g>
<g>
</g>
<g>
</g>
<g>
</g>
<g>
</g>
<g>
</g>
<g>
</g>
</svg>
