<?xml version="1.0" encoding="iso-8859-1"?>
<!-- Generator: Adobe Illustrator 16.0.0, SVG Export Plug-In . SVG Version: 6.00 Build 0)  -->
<!DOCTYPE svg PUBLIC "-//W3C//DTD SVG 1.1//EN" "http://www.w3.org/Graphics/SVG/1.1/DTD/svg11.dtd">
<svg version="1.1" id="Capa_1" xmlns="http://www.w3.org/2000/svg" xmlns:xlink="http://www.w3.org/1999/xlink" x="0px" y="0px"
	 width="37.482px" height="37.482px" viewBox="0 0 37.482 37.482" style="enable-background:new 0 0 37.482 37.482;"
	 xml:space="preserve">
<g>
	<path d="M36.721,10.438L22.506,4.872c-0.067-0.027-0.141-0.046-0.213-0.057l-2.854-0.438c-0.185-0.029-0.362,0.011-0.527,0.08
		c-0.106,0.004-0.214,0.019-0.313,0.058L3.767,10.182c-0.234,0.09-0.41,0.266-0.521,0.479l-3.021,3.698
		c-0.2,0.244-0.272,0.568-0.195,0.875c0.076,0.306,0.293,0.559,0.585,0.68l2.511,1.048v9.488c0,0.415,0.256,0.786,0.645,0.934
		l14.799,5.653c0.001,0,0.002,0,0.003,0.001l0.032,0.012c0.109,0.042,0.229,0.063,0.345,0.064c0.004,0,0.007,0.002,0.011,0.002l0,0
		c0.002,0,0.002,0,0.002,0c0.121,0,0.241-0.022,0.355-0.066l14.832-5.667c0.388-0.146,0.645-0.52,0.645-0.934V12.193l1.534,0.205
		c0.044,0.006,0.089,0.009,0.134,0.009c0.004,0,0.016,0,0.02,0c0.553,0,1-0.448,1-1C37.473,10.941,37.155,10.549,36.721,10.438z
		 M18.954,6.52l11.312,4.321l0.703,0.282l-12.014,4.59L7.664,11.4l-0.736-0.285L18.954,6.52z M4.469,12.32l2.365,0.902l9.996,3.87
		l-1.826,2.663L4.562,15.398c-0.037-0.02-0.072-0.033-0.111-0.047l-1.832-0.765L4.469,12.32z M5.122,17.797l9.864,4.117
		c0.125,0.052,0.255,0.077,0.385,0.077c0.321,0,0.634-0.156,0.825-0.437l1.76-2.563v11.672L5.122,25.761V17.797z"/>
</g>
<g>
</g>
<g>
</g>
<g>
</g>
<g>
</g>
<g>
</g>
<g>
</g>
<g>
</g>
<g>
</g>
<g>
</g>
<g>
</g>
<g>
</g>
<g>
</g>
<g>
</g>
<g>
</g>
<g>
</g>
</svg>
