<?xml version="1.0" encoding="iso-8859-1"?>
<!-- Generator: Adobe Illustrator 16.0.0, SVG Export Plug-In . SVG Version: 6.00 Build 0)  -->
<!DOCTYPE svg PUBLIC "-//W3C//DTD SVG 1.1//EN" "http://www.w3.org/Graphics/SVG/1.1/DTD/svg11.dtd">
<svg version="1.1" id="Capa_1" xmlns="http://www.w3.org/2000/svg" xmlns:xlink="http://www.w3.org/1999/xlink" x="0px" y="0px"
	 width="37.078px" height="37.078px" viewBox="0 0 37.078 37.078" style="enable-background:new 0 0 37.078 37.078;"
	 xml:space="preserve">
<g>
	<path d="M3.227,26.233C1.338,25.486,0,23.646,0,21.492V11.021c0-2.818,2.283-5.104,5.102-5.104h21.75
		c1.943,0,3.631,1.088,4.494,2.687H10.203c-3.85,0-6.98,3.131-6.98,6.981v10.473C3.223,26.117,3.225,26.177,3.227,26.233z
		 M37.078,15.586v10.472c0,2.819-2.285,5.104-5.104,5.104H10.227c-2.818,0-5.103-2.283-5.103-5.104V15.586
		c0-2.818,2.283-5.102,5.103-5.102h21.748C34.793,10.484,37.078,12.768,37.078,15.586z M13.461,26.146H7.945v1.881h5.516V26.146z
		 M20.395,26.146h-5.521v1.881h5.521V26.146z M24.229,22.488c1.033,0,1.969-0.404,2.668-1.064c0.692,0.66,1.633,1.064,2.668,1.064
		c2.146,0,3.889-1.74,3.889-3.89c0-2.146-1.742-3.89-3.889-3.89c-1.035,0-1.976,0.406-2.668,1.063
		c-0.699-0.657-1.635-1.063-2.668-1.063c-2.148,0-3.892,1.742-3.892,3.89C20.34,20.748,22.08,22.488,24.229,22.488z M27.326,26.146
		h-5.518v1.881h5.52L27.326,26.146L27.326,26.146z M34.26,26.146h-5.52v1.881h5.52V26.146z"/>
</g>
<g>
</g>
<g>
</g>
<g>
</g>
<g>
</g>
<g>
</g>
<g>
</g>
<g>
</g>
<g>
</g>
<g>
</g>
<g>
</g>
<g>
</g>
<g>
</g>
<g>
</g>
<g>
</g>
<g>
</g>
</svg>
