<?xml version="1.0" encoding="iso-8859-1"?>
<!-- Generator: Adobe Illustrator 16.0.0, SVG Export Plug-In . SVG Version: 6.00 Build 0)  -->
<!DOCTYPE svg PUBLIC "-//W3C//DTD SVG 1.1//EN" "http://www.w3.org/Graphics/SVG/1.1/DTD/svg11.dtd">
<svg version="1.1" id="Capa_1" xmlns="http://www.w3.org/2000/svg" xmlns:xlink="http://www.w3.org/1999/xlink" x="0px" y="0px"
	 width="34.908px" height="34.908px" viewBox="0 0 34.908 34.908" style="enable-background:new 0 0 34.908 34.908;"
	 xml:space="preserve">
<g>
	<g>
		<ellipse cx="15.204" cy="17.454" rx="1.312" ry="1.988"/>
		<ellipse cx="19.704" cy="17.454" rx="1.312" ry="1.988"/>
	</g>
	<path d="M31.031,18.842c0-3.25-1.146-6.232-3.053-8.57c0.076-0.13,0.154-0.26,0.225-0.397c1.706-3.342,0.357-7.126,0.3-7.286
		c-0.221-0.603-0.821-0.884-1.454-0.685c0,0-0.078,0.023-0.217,0.074c-0.859,0.316-3.607,1.488-5.203,3.948
		c-0.195-0.062-0.396-0.114-0.599-0.168C21.293,5.225,21.454,4.633,21.454,4c0-2.209-1.791-4-4-4s-4,1.791-4,4
		c0,0.634,0.161,1.226,0.424,1.758c-0.199,0.055-0.4,0.105-0.598,0.168c-1.596-2.46-4.344-3.631-5.203-3.948
		C7.938,1.926,7.861,1.903,7.861,1.903C7.229,1.704,6.627,1.984,6.406,2.588c-0.06,0.159-1.407,3.944,0.299,7.285
		c0.069,0.137,0.146,0.268,0.224,0.398c-1.906,2.337-3.052,5.319-3.052,8.571c0,4.786,2.484,8.986,6.228,11.403L9.744,32.88
		c-0.284,0.622,0.172,1.439,1.021,1.827c0.848,0.389,1.766,0.197,2.049-0.424l1.353-2.285c1.056,0.264,2.153,0.418,3.29,0.418
		s2.234-0.154,3.29-0.418l1.353,2.284c0.283,0.621,1.201,0.812,2.049,0.424c0.851-0.388,1.307-1.206,1.021-1.827l-0.361-2.635
		C28.547,27.829,31.031,23.63,31.031,18.842z M10.454,13.268c0-0.236,0.027-0.462,0.068-0.682c0.033,1.111,0.736,2,1.604,2
		c0.891,0,1.611-0.932,1.611-2.081c0-1.11-0.676-2.01-1.524-2.069c0.158-0.045,0.321-0.074,0.49-0.074
		c1.242,0,2.25,1.301,2.25,2.906s-1.008,2.906-2.25,2.906S10.454,14.873,10.454,13.268z M17.454,26.98
		c-2.92,0-5.289-2.367-5.289-5.289c0-2.92,2.369-5.287,5.289-5.287c2.921,0,5.289,2.369,5.289,5.289
		C22.743,24.614,20.375,26.98,17.454,26.98z M21.643,16.174c-1.181,0-2.139-1.178-2.23-2.671c0.273,0.642,0.797,1.083,1.404,1.083
		c0.043,0,0.082-0.012,0.125-0.016c0.041,0.004,0.082,0.016,0.125,0.016c0.89,0,1.611-0.932,1.611-2.081
		c0-1.11-0.678-2.01-1.524-2.069c0.157-0.045,0.321-0.074,0.489-0.074c1.242,0,2.25,1.301,2.25,2.906S22.885,16.174,21.643,16.174z"
		/>
	<g>
		<g>
			<path d="M17.147,19.809V19.26c-0.387-0.018-0.762-0.121-0.981-0.248l0.175-0.676c0.241,0.133,0.582,0.254,0.959,0.254
				c0.328,0,0.553-0.127,0.553-0.357c0-0.219-0.185-0.357-0.611-0.501c-0.617-0.208-1.039-0.497-1.039-1.057
				c0-0.508,0.357-0.907,0.977-1.029v-0.548h0.565v0.508c0.386,0.017,0.646,0.098,0.837,0.19l-0.168,0.653
				c-0.148-0.063-0.416-0.196-0.832-0.196c-0.375,0-0.497,0.162-0.497,0.323c0,0.191,0.203,0.312,0.693,0.497
				c0.688,0.243,0.965,0.561,0.965,1.082c0,0.514-0.365,0.953-1.029,1.068v0.59h-0.567V19.809z"/>
		</g>
	</g>
</g>
<g>
</g>
<g>
</g>
<g>
</g>
<g>
</g>
<g>
</g>
<g>
</g>
<g>
</g>
<g>
</g>
<g>
</g>
<g>
</g>
<g>
</g>
<g>
</g>
<g>
</g>
<g>
</g>
<g>
</g>
</svg>
