<?xml version="1.0" encoding="iso-8859-1"?>
<!-- Generator: Adobe Illustrator 16.0.0, SVG Export Plug-In . SVG Version: 6.00 Build 0)  -->
<!DOCTYPE svg PUBLIC "-//W3C//DTD SVG 1.1//EN" "http://www.w3.org/Graphics/SVG/1.1/DTD/svg11.dtd">
<svg version="1.1" id="Capa_1" xmlns="http://www.w3.org/2000/svg" xmlns:xlink="http://www.w3.org/1999/xlink" x="0px" y="0px"
	 width="32.734px" height="32.734px" viewBox="0 0 32.734 32.734" style="enable-background:new 0 0 32.734 32.734;"
	 xml:space="preserve">
<g>
	<path d="M30.105,8.323c-0.131-0.188-0.371-0.267-0.59-0.191c-0.217,0.075-0.357,0.285-0.348,0.516
		c0.111,2.238-2.062,3.652-2.07,3.66c-0.309,0.184-0.633,0.271-1,0.271c-2.324,0-5.441-3.635-6.445-5.034
		c-0.098-0.134-0.25-0.212-0.414-0.215c-0.162-0.003-0.317,0.071-0.416,0.202c-0.885,1.158-2.271,2.211-3.862,3.139l-0.707-1.33
		l-6.056,4.354c-2.748,0.973-4.913,1.512-4.965,1.523c-1.258,0.314-2.166,0.967-2.7,1.94c-0.989,1.802-0.34,4.121-0.117,4.791
		c0.044,0.129,0.14,0.229,0.257,0.289c0.229,0.18,0.503,0.365,0.83,0.555l0.188,1.834l3.108,0.535l0.5-1.045
		c0.199,0.039,0.404,0.076,0.616,0.109l0.261,1.07l3.151,0.107l0.276-0.866c0.214,0.004,0.431,0.009,0.654,0.009
		c0.132,0,0.271-0.005,0.406-0.006l0.259,0.803l3.151-0.127l0.208-0.871c0.389-0.037,0.787-0.078,1.195-0.125l0.391,0.965
		l3.131-0.354l0.168-1.023c0.293-0.023,0.615-0.051,0.965-0.074l0.381,0.938l3.133-0.354l0.127-0.777
		c0.303-0.01,0.611-0.02,0.926-0.024l0.588,1.185l4.83-0.112l0.347-0.96c0.458,0.033,0.913,0.07,1.356,0.119
		c0.197,0.021,0.383-0.113,0.422-0.312c0.205-1.062,0.443-2.637,0.322-3.729C33.507,13.246,30.261,8.538,30.105,8.323z
		 M31.627,18.79c-1.471-0.137-3.141-0.206-4.971-0.206c-4.848,0-9.295,0.487-9.354,0.493c-2.533,0.373-4.874,0.562-6.951,0.562
		c-5.152,0-7.724-1.142-8.917-1.979c0-0.004,0.002-0.006,0.004-0.008c0.389-0.711,1.077-1.194,2.042-1.436
		c0.205-0.05,2.299-0.571,4.962-1.508l7.936-1.371l-0.933-1.757c1.475-0.862,2.803-1.834,3.767-2.908
		c1.081,1.379,4.145,4.936,6.885,4.936c0.554,0,1.067-0.141,1.541-0.424c0.09-0.057,1.744-1.123,2.351-2.988
		C30.804,11.851,31.975,14.978,31.627,18.79z"/>
</g>
<g>
</g>
<g>
</g>
<g>
</g>
<g>
</g>
<g>
</g>
<g>
</g>
<g>
</g>
<g>
</g>
<g>
</g>
<g>
</g>
<g>
</g>
<g>
</g>
<g>
</g>
<g>
</g>
<g>
</g>
</svg>
