<?xml version="1.0" encoding="iso-8859-1"?>
<!-- Generator: Adobe Illustrator 16.0.0, SVG Export Plug-In . SVG Version: 6.00 Build 0)  -->
<!DOCTYPE svg PUBLIC "-//W3C//DTD SVG 1.1//EN" "http://www.w3.org/Graphics/SVG/1.1/DTD/svg11.dtd">
<svg version="1.1" id="Capa_1" xmlns="http://www.w3.org/2000/svg" xmlns:xlink="http://www.w3.org/1999/xlink" x="0px" y="0px"
	 width="41.352px" height="41.351px" viewBox="0 0 41.352 41.351" style="enable-background:new 0 0 41.352 41.351;"
	 xml:space="preserve">
<g>
	<path d="M41.041,13.209c-0.349-0.527-0.938-0.845-1.569-0.845h-7.67l2.682-4.021c0.54-0.81,0.32-1.904-0.489-2.444
		c-0.811-0.54-1.903-0.321-2.443,0.488l-3.983,5.976H13.786L9.802,6.387c-0.54-0.81-1.634-1.028-2.444-0.488
		S6.329,7.533,6.869,8.343l2.681,4.021H1.88c-0.631,0-1.221,0.317-1.569,0.845c-0.348,0.527-0.408,1.193-0.16,1.774l8.387,19.625
		c0.296,0.691,0.976,1.141,1.729,1.141h20.82c0.753,0,1.435-0.448,1.729-1.141l8.387-19.625
		C41.448,14.403,41.389,13.736,41.041,13.209z M12.056,16.125l1.691,2.537c0.339,0.51,0.898,0.785,1.468,0.785
		c0.336,0,0.676-0.096,0.977-0.296c0.81-0.541,1.028-1.634,0.488-2.444l-0.387-0.582h2.973v4.6H6.694l-1.966-4.6H12.056z
		 M19.266,26.389H9.115l-1.216-2.845h11.367V26.389z M22.086,23.545h11.366l-1.216,2.845h-10.15V23.545z M10.32,29.21h8.946v2.777
		h-7.759L10.32,29.21z M22.086,31.988V29.21h8.945l-1.188,2.778L22.086,31.988L22.086,31.988z M34.658,20.724H22.086v-4.6h2.973
		l-0.388,0.582c-0.54,0.81-0.321,1.904,0.488,2.444c0.302,0.2,0.642,0.296,0.978,0.296c0.568,0,1.128-0.275,1.469-0.785l1.69-2.537
		h7.329L34.658,20.724z"/>
</g>
<g>
</g>
<g>
</g>
<g>
</g>
<g>
</g>
<g>
</g>
<g>
</g>
<g>
</g>
<g>
</g>
<g>
</g>
<g>
</g>
<g>
</g>
<g>
</g>
<g>
</g>
<g>
</g>
<g>
</g>
</svg>
