<?xml version="1.0" encoding="iso-8859-1"?>
<!-- Generator: Adobe Illustrator 16.0.0, SVG Export Plug-In . SVG Version: 6.00 Build 0)  -->
<!DOCTYPE svg PUBLIC "-//W3C//DTD SVG 1.1//EN" "http://www.w3.org/Graphics/SVG/1.1/DTD/svg11.dtd">
<svg version="1.1" id="Capa_1" xmlns="http://www.w3.org/2000/svg" xmlns:xlink="http://www.w3.org/1999/xlink" x="0px" y="0px"
	 width="37.84px" height="37.84px" viewBox="0 0 37.84 37.84" style="enable-background:new 0 0 37.84 37.84;" xml:space="preserve"
	>
<g>
	<path d="M9.018,33.607V4.234h19.806V27.5c0.214,0.094,0.397,0.203,0.562,0.322c0.205-0.049,0.391-0.064,0.549-0.064
		c0.576,0,1.068,0.209,1.459,0.473c0.045-0.016,0.084-0.021,0.113-0.03c0.291-0.065,0.572-0.103,0.844-0.103
		c0.254,0,0.488,0.029,0.709,0.08V2.117c0-1.17-0.949-2.117-2.119-2.117H6.898C5.729,0,4.781,0.947,4.781,2.117v33.605
		c0,1.172,0.947,2.117,2.117,2.117h14.668c-0.65-1.297-1.39-2.869-1.875-4.232H9.018L9.018,33.607z M14.685,1.587h8.471v1.141
		h-8.471V1.587z"/>
	<path d="M23.407,17.004c-0.168,0.039-0.487,0.49-0.487,0.49s-1.062-1.631-2.284-0.49c0,0-0.164-1.061-2.12-0.977l-1.06-8.318
		h-2.365l-0.489,10.029c0,0-2.696-0.771-2.528,1.225c0.189,2.232,3.547,8.254,3.547,8.254l-0.041,2.914h7.83v-3.26l2.363-8.48
		C25.773,18.391,25.282,16.576,23.407,17.004z"/>
	<rect x="10.502" y="18.253" width="16.833" height="1.334"/>
	<rect x="10.502" y="18.253" width="16.833" height="1.334"/>
	<rect x="10.502" y="18.253" width="16.833" height="1.334"/>
	<rect x="13.252" y="18.253" width="11.333" height="1.334"/>
	<rect x="13.252" y="18.253" width="11.333" height="1.334"/>
	<rect x="13.252" y="18.253" width="11.333" height="1.334"/>
	<g>
		<g>
			<path d="M13.004,16.665c0.329-0.059,0.79-0.104,1.44-0.109c0.658-0.004,1.128,0.117,1.444,0.367
				c0.303,0.236,0.508,0.627,0.512,1.088c0.003,0.464-0.147,0.854-0.425,1.123c-0.362,0.347-0.899,0.503-1.529,0.507
				c-0.14,0.002-0.266-0.004-0.364-0.018l0.012,1.688l-1.057,0.008L13.004,16.665z M14.08,18.797
				c0.091,0.021,0.203,0.025,0.357,0.025c0.567-0.004,0.915-0.293,0.911-0.775c-0.003-0.435-0.306-0.691-0.838-0.688
				c-0.217,0.002-0.363,0.024-0.44,0.046L14.08,18.797z"/>
			<path d="M17.072,16.633c0.392-0.065,0.902-0.104,1.441-0.108c0.896-0.007,1.478,0.151,1.935,0.489
				c0.492,0.361,0.806,0.938,0.812,1.771c0.008,0.902-0.316,1.527-0.771,1.916c-0.492,0.416-1.248,0.617-2.171,0.625
				c-0.553,0.004-0.945-0.027-1.211-0.062L17.072,16.633z M18.171,20.475c0.091,0.021,0.238,0.021,0.371,0.02
				c0.966,0.001,1.591-0.536,1.583-1.663c0-0.979-0.578-1.493-1.497-1.485c-0.238,0.002-0.392,0.022-0.482,0.045L18.171,20.475z"/>
			<path d="M21.944,16.535l2.884-0.021l0.006,0.875l-1.812,0.014l0.008,1.078l1.693-0.014l0.006,0.867l-1.691,0.014l0.014,1.896
				l-1.069,0.009L21.944,16.535z"/>
		</g>
	</g>
</g>
<g>
</g>
<g>
</g>
<g>
</g>
<g>
</g>
<g>
</g>
<g>
</g>
<g>
</g>
<g>
</g>
<g>
</g>
<g>
</g>
<g>
</g>
<g>
</g>
<g>
</g>
<g>
</g>
<g>
</g>
</svg>
