<?xml version="1.0" encoding="iso-8859-1"?>
<!-- Generator: Adobe Illustrator 16.0.0, SVG Export Plug-In . SVG Version: 6.00 Build 0)  -->
<!DOCTYPE svg PUBLIC "-//W3C//DTD SVG 1.1//EN" "http://www.w3.org/Graphics/SVG/1.1/DTD/svg11.dtd">
<svg version="1.1" id="Capa_1" xmlns="http://www.w3.org/2000/svg" xmlns:xlink="http://www.w3.org/1999/xlink" x="0px" y="0px"
	 width="44.062px" height="44.062px" viewBox="0 0 44.062 44.062" style="enable-background:new 0 0 44.062 44.062;"
	 xml:space="preserve">
<g>
	<path d="M44.062,21.593c-1.34,0.991-2.038,5.014-2.038,5.014l1.457,1.049l-2.273,4.194l-2.738-1.342l-1.865,1.811l-2.1-1.051
		l0.059-1.456l-1.164,1.456l-1.926-0.814l-0.174-1.633l-1.164,1.341l-1.867-0.759l-0.057-1.688l-0.816,1.049l-1.865-1.573
		l1.342-2.392l-3.03-1.631l-0.759,1.049L20.75,22.82l0.369-0.933l-1.302-0.525l-0.719,1.691l-2.545-1.227l-1.652,3.635l1.089,0.698
		l-1.068,2.138L3.73,22.935l0.913-1.98l1.303,0.524l6.41-13.696L11.132,7.14l1.224-2.157l11.073,5.421l-1.106,2.099l-0.99-0.583
		l-1.458,3.265l2.157,1.224l-0.758,1.515l1.573,0.7l0.447-0.933l2.351,1.34l-0.232,0.875l2.914,1.341l0.701-0.059l-0.232-0.642
		l-1.07-0.835l1.711-1.242l7.461-0.623l6.062-6.372L44.062,21.593z M20.283,32.552v-2.856H2.331v2.856H0v6.526h22.614v-6.526H20.283
		z"/>
</g>
<g>
</g>
<g>
</g>
<g>
</g>
<g>
</g>
<g>
</g>
<g>
</g>
<g>
</g>
<g>
</g>
<g>
</g>
<g>
</g>
<g>
</g>
<g>
</g>
<g>
</g>
<g>
</g>
<g>
</g>
</svg>
