<?xml version="1.0" encoding="iso-8859-1"?>
<!-- Generator: Adobe Illustrator 16.0.0, SVG Export Plug-In . SVG Version: 6.00 Build 0)  -->
<!DOCTYPE svg PUBLIC "-//W3C//DTD SVG 1.1//EN" "http://www.w3.org/Graphics/SVG/1.1/DTD/svg11.dtd">
<svg version="1.1" id="Capa_1" xmlns="http://www.w3.org/2000/svg" xmlns:xlink="http://www.w3.org/1999/xlink" x="0px" y="0px"
	 width="31.814px" height="31.814px" viewBox="0 0 31.814 31.814" style="enable-background:new 0 0 31.814 31.814;"
	 xml:space="preserve">
<g>
	<path d="M29.717,15.946c0.059,0.223,0.1,0.452,0.1,0.693v11.193c0,1.516-1.229,2.744-2.744,2.744H4.745
		c-1.516,0-2.744-1.229-2.744-2.744V16.638c0-0.24,0.041-0.471,0.1-0.692h9.685v1.5c0,0.685,0.556,1.237,1.237,1.237h1.031v1.441
		c0,0.457,0.367,0.826,0.824,0.826h2.062c0.458,0,0.825-0.369,0.825-0.826v-1.441h1.031c0.682,0,1.235-0.555,1.235-1.237v-1.5
		L29.717,15.946L29.717,15.946z M31.814,9.086v2.782c0,1.473-1.194,2.668-2.667,2.668H2.667C1.194,14.536,0,13.341,0,11.868V9.086
		c0-1.474,1.194-2.668,2.667-2.668h4.53c0.985-2.972,4.511-5.181,8.71-5.181s7.726,2.209,8.71,5.181h4.53
		C30.62,6.418,31.814,7.614,31.814,9.086z M10.227,6.418h11.361c-0.996-1.421-3.195-2.438-5.682-2.438
		C13.42,3.98,11.223,4.997,10.227,6.418z"/>
</g>
<g>
</g>
<g>
</g>
<g>
</g>
<g>
</g>
<g>
</g>
<g>
</g>
<g>
</g>
<g>
</g>
<g>
</g>
<g>
</g>
<g>
</g>
<g>
</g>
<g>
</g>
<g>
</g>
<g>
</g>
</svg>
