<?xml version="1.0" encoding="iso-8859-1"?>
<!-- Generator: Adobe Illustrator 16.0.0, SVG Export Plug-In . SVG Version: 6.00 Build 0)  -->
<!DOCTYPE svg PUBLIC "-//W3C//DTD SVG 1.1//EN" "http://www.w3.org/Graphics/SVG/1.1/DTD/svg11.dtd">
<svg version="1.1" id="Capa_1" xmlns="http://www.w3.org/2000/svg" xmlns:xlink="http://www.w3.org/1999/xlink" x="0px" y="0px"
	 width="38.988px" height="38.988px" viewBox="0 0 38.988 38.988" style="enable-background:new 0 0 38.988 38.988;"
	 xml:space="preserve">
<g>
	<path d="M38.988,24.485c0,0-6.172,4.375-14.846,3.983c0,0-7.343-0.858-8.047-1.174l0.234-1.719l-2.031-0.393v2.656H0v-4.531
		l2.807,0.061l-2.25-0.75c0,0-0.052-6.726,0.85-8.528c0,0,7.813,2.577,11.329-3.595l10.705,4.767v1.562c0,0,3.311,3.51,9.679,1.294
		c0.752-0.263,2.521,0.648,2.946,2.062c0.109,0.358-1.821,1.562-3.26,2.312l4.229-1.372L38.988,24.485z"/>
</g>
<g>
</g>
<g>
</g>
<g>
</g>
<g>
</g>
<g>
</g>
<g>
</g>
<g>
</g>
<g>
</g>
<g>
</g>
<g>
</g>
<g>
</g>
<g>
</g>
<g>
</g>
<g>
</g>
<g>
</g>
</svg>
