<?xml version="1.0" encoding="iso-8859-1"?>
<!-- Generator: Adobe Illustrator 16.0.0, SVG Export Plug-In . SVG Version: 6.00 Build 0)  -->
<!DOCTYPE svg PUBLIC "-//W3C//DTD SVG 1.1//EN" "http://www.w3.org/Graphics/SVG/1.1/DTD/svg11.dtd">
<svg version="1.1" id="Capa_1" xmlns="http://www.w3.org/2000/svg" xmlns:xlink="http://www.w3.org/1999/xlink" x="0px" y="0px"
	 width="37.845px" height="37.845px" viewBox="0 0 37.845 37.845" style="enable-background:new 0 0 37.845 37.845;"
	 xml:space="preserve">
<g>
	<path d="M28.256,4.214l-0.012,0.024c-1.854-0.787-5.35-0.953-9.359-0.953c-4.522,0-8.394,0.211-9.989,1.287L0,9.193l4.346,8.365
		L8.115,15.6v10.309c3.149,1.369,6.852,2.159,10.809,2.159c3.924,0,7.6-0.775,10.734-2.128V15.564l3.841,1.995l4.346-8.365
		L28.256,4.214z M18.922,5.781c-2.678,0-4.849-0.414-4.849-0.924c0-0.51,2.171-0.924,4.849-0.924c2.675,0,4.846,0.414,4.846,0.924
		C23.768,5.367,21.598,5.781,18.922,5.781z M29.693,28.212v2.33c0,2.217-4.822,4.018-10.772,4.018
		c-5.948,0-10.771-1.799-10.771-4.018v-2.356c3.225,1.269,6.902,1.985,10.81,1.985C22.834,30.171,26.488,29.462,29.693,28.212z"/>
</g>
<g>
</g>
<g>
</g>
<g>
</g>
<g>
</g>
<g>
</g>
<g>
</g>
<g>
</g>
<g>
</g>
<g>
</g>
<g>
</g>
<g>
</g>
<g>
</g>
<g>
</g>
<g>
</g>
<g>
</g>
</svg>
