<?xml version="1.0" encoding="iso-8859-1"?>
<!-- Generator: Adobe Illustrator 16.0.0, SVG Export Plug-In . SVG Version: 6.00 Build 0)  -->
<!DOCTYPE svg PUBLIC "-//W3C//DTD SVG 1.1//EN" "http://www.w3.org/Graphics/SVG/1.1/DTD/svg11.dtd">
<svg version="1.1" id="Capa_1" xmlns="http://www.w3.org/2000/svg" xmlns:xlink="http://www.w3.org/1999/xlink" x="0px" y="0px"
	 width="33.635px" height="33.635px" viewBox="0 0 33.635 33.635" style="enable-background:new 0 0 33.635 33.635;"
	 xml:space="preserve">
<g>
	<path d="M23.698,25.673c4.607-4.771,4.476-12.398-0.297-17.007c-0.832-0.805-0.854-2.133-0.049-2.966
		c0.805-0.835,2.135-0.857,2.967-0.052c3.117,3.011,4.875,7.056,4.949,11.387c0.078,4.332-1.541,8.438-4.553,11.555
		c-0.617,0.641-1.547,0.803-2.322,0.477c-0.231-0.099-0.451-0.24-0.643-0.426C22.918,27.836,22.894,26.505,23.698,25.673z
		 M19.257,9.939c-0.803,0.834-0.781,2.163,0.053,2.967c2.434,2.352,2.5,6.243,0.15,8.675c-0.807,0.833-0.781,2.159,0.053,2.967
		c0.189,0.187,0.41,0.327,0.643,0.427c0.777,0.324,1.705,0.162,2.324-0.478c3.957-4.099,3.844-10.651-0.254-14.608
		C21.394,9.082,20.063,9.104,19.257,9.939z M4.179,0c0,0-4.084,17.193,0,33.635h11.928v-8.703h-5.695V8.812h5.695V0H4.179z"/>
</g>
<g>
</g>
<g>
</g>
<g>
</g>
<g>
</g>
<g>
</g>
<g>
</g>
<g>
</g>
<g>
</g>
<g>
</g>
<g>
</g>
<g>
</g>
<g>
</g>
<g>
</g>
<g>
</g>
<g>
</g>
</svg>
