<?xml version="1.0" encoding="iso-8859-1"?>
<!-- Generator: Adobe Illustrator 16.0.0, SVG Export Plug-In . SVG Version: 6.00 Build 0)  -->
<!DOCTYPE svg PUBLIC "-//W3C//DTD SVG 1.1//EN" "http://www.w3.org/Graphics/SVG/1.1/DTD/svg11.dtd">
<svg version="1.1" id="Capa_1" xmlns="http://www.w3.org/2000/svg" xmlns:xlink="http://www.w3.org/1999/xlink" x="0px" y="0px"
	 width="42.882px" height="42.882px" viewBox="0 0 42.882 42.882" style="enable-background:new 0 0 42.882 42.882;"
	 xml:space="preserve">
<g>
	<path d="M0,25.192v16.89h42.882v-16.89H0z M39.307,38.504H3.577v-9.735h35.729V38.504z M35.871,15.821h-0.148V9.344h-2.436V6.891
		h2.584V0.8H24.445v6.091h2.582v2.453H7.159v6.477H7.121l-5.334,8.377h39.306L35.871,15.821z M26.531,2.887h7.252v1.918h-7.252
		V2.887z M9.247,11.432h24.389v2.744H9.247V11.432z M14.892,16.559l-0.26,1.371h-2.037l0.401-1.371H14.892z M9.683,18.385h2.084
		l-0.448,1.371H9.094L9.683,18.385z M7.163,17.929l0.777-1.371h1.896L9.2,17.929H7.163z M9.879,17.929l0.589-1.371h1.896
		l-0.448,1.371H9.879z M6.904,18.385h2.084l-0.636,1.371H6.127L6.904,18.385z M6.655,23.412H4.054l0.777-1.371h2.46L6.655,23.412z
		 M5.09,21.585l0.777-1.371h2.272l-0.636,1.371H5.09z M10.124,23.412H7.522l0.589-1.371h2.46L10.124,23.412z M8.308,21.585
		l0.589-1.371h2.272l-0.448,1.371H8.308z M13.592,23.412h-2.601l0.401-1.371h2.46L13.592,23.412z M13.939,21.585h-2.414l0.401-1.371
		h2.272L13.939,21.585z M12.06,19.756l0.401-1.371h2.084l-0.26,1.371H12.06z M17.061,23.412H14.46l0.213-1.371h2.46L17.061,23.412z
		 M17.157,21.585h-2.414l0.213-1.371h2.272L17.157,21.585z M17.252,19.756h-2.225l0.213-1.371h2.084L17.252,19.756z M17.348,17.929
		h-2.037l0.213-1.371h1.896L17.348,17.929z M36.343,36.021H6.539v-4.768h7.749v2.257h14.305v-2.257h7.75V36.021z"/>
</g>
<g>
</g>
<g>
</g>
<g>
</g>
<g>
</g>
<g>
</g>
<g>
</g>
<g>
</g>
<g>
</g>
<g>
</g>
<g>
</g>
<g>
</g>
<g>
</g>
<g>
</g>
<g>
</g>
<g>
</g>
</svg>
