<?xml version="1.0" encoding="iso-8859-1"?>
<!-- Generator: Adobe Illustrator 16.0.0, SVG Export Plug-In . SVG Version: 6.00 Build 0)  -->
<!DOCTYPE svg PUBLIC "-//W3C//DTD SVG 1.1//EN" "http://www.w3.org/Graphics/SVG/1.1/DTD/svg11.dtd">
<svg version="1.1" id="Capa_1" xmlns="http://www.w3.org/2000/svg" xmlns:xlink="http://www.w3.org/1999/xlink" x="0px" y="0px"
	 width="40.787px" height="40.787px" viewBox="0 0 40.787 40.787" style="enable-background:new 0 0 40.787 40.787;"
	 xml:space="preserve">
<g>
	<path d="M28.396,15.984c2.188-2.187,2.188-5.745,0-7.931l-6.411-6.411C20.927,0.583,19.519,0,18.021,0s-2.906,0.583-3.965,1.642
		l-9.907,9.907c-2.187,2.187-2.188,5.744,0,7.931l6.411,6.413c1.06,1.06,2.468,1.643,3.965,1.643c1.498,0,2.906-0.583,3.965-1.643
		l1.299-1.299l-2.385-1.929L17.4,22.309l-1.247,1.248c-0.87,0.871-2.389,0.869-3.26,0l-2.562-2.562l7.004-7.004l-0.035-4.637
		l-9.305,9.305l-1.513-1.513c-0.898-0.899-0.898-2.36,0-3.259L16.39,3.98c0.435-0.436,1.014-0.675,1.629-0.675
		c0.616,0,1.194,0.24,1.629,0.675l1.515,1.513l-1.952,1.95c-0.141-0.034-0.266-0.076-0.413-0.106l0.117,15.33l3.019,2.438v3.483
		c0,0-4.529-1.856-6.039,2.903c0,0-1.858,7.316,3.135,9.291c0,0,5.343,0.35,6.04-5.574V19.311L28.396,15.984z M23.498,7.828
		l2.562,2.562c0.896,0.898,0.896,2.361,0,3.259l-0.988,0.989v-0.45c0,0,0.327-3.206-2.604-5.331L23.498,7.828z M20.079,38.229
		c-1.156,0-2.091-1.646-2.091-3.672c0-2.029,0.935-3.674,2.091-3.674c1.155,0,2.089,1.645,2.089,3.674
		C22.168,36.583,21.232,38.229,20.079,38.229z M22.373,23.828c-0.723,0-1.309-0.584-1.309-1.307c0-0.725,0.585-1.309,1.309-1.309
		c0.722,0,1.307,0.584,1.307,1.309C23.679,23.244,23.094,23.828,22.373,23.828z M31.308,22.809c-3.095-0.467-4.38,1.274-4.908,2.643
		l-0.228,5.057l4.422,2.176c5.623,1.986,7.667-2.961,7.667-2.961C38.693,24.371,31.308,22.809,31.308,22.809z M35.508,29.533
		c-0.51,1.037-2.397,1.15-4.219,0.255c-1.82-0.896-2.883-2.459-2.373-3.496c0.508-1.037,2.396-1.149,4.219-0.255
		C34.955,26.932,36.018,28.497,35.508,29.533z"/>
</g>
<g>
</g>
<g>
</g>
<g>
</g>
<g>
</g>
<g>
</g>
<g>
</g>
<g>
</g>
<g>
</g>
<g>
</g>
<g>
</g>
<g>
</g>
<g>
</g>
<g>
</g>
<g>
</g>
<g>
</g>
</svg>
