<?xml version="1.0" encoding="iso-8859-1"?>
<!-- Generator: Adobe Illustrator 16.0.0, SVG Export Plug-In . SVG Version: 6.00 Build 0)  -->
<!DOCTYPE svg PUBLIC "-//W3C//DTD SVG 1.1//EN" "http://www.w3.org/Graphics/SVG/1.1/DTD/svg11.dtd">
<svg version="1.1" id="Capa_1" xmlns="http://www.w3.org/2000/svg" xmlns:xlink="http://www.w3.org/1999/xlink" x="0px" y="0px"
	 width="39.445px" height="39.445px" viewBox="0 0 39.445 39.445" style="enable-background:new 0 0 39.445 39.445;"
	 xml:space="preserve">
<g>
	<path d="M25.566,20.633l4.937,16.278c0,0-10.562,6.097-20.73-0.622l4.688-15.656H25.566z M28.223,2.083l-3.524-0.208
		c-1.244-1.866-3.199-1.82-4.381-1.869c-3.527-0.146-4.948,2.076-4.948,2.076l-3.552,1.424L9.565,14.728l-3.11,10.573l0.829,0.208
		l3.109,0.83l2.923-9.831l1.125-5l0.202,7.99h4.798V3.224c-1.289-0.119-2.25-0.561-2.25-1.091c0-0.621,1.315-1.125,2.938-1.125
		c1.623,0,2.938,0.504,2.938,1.125c0,0.597-1.218,1.08-2.75,1.118v16.249h5.286l0.339-9.365l2.694,3.974l-1.451,9.951l3.111,1.037
		l2.693-13.268L28.223,2.083z"/>
</g>
<g>
</g>
<g>
</g>
<g>
</g>
<g>
</g>
<g>
</g>
<g>
</g>
<g>
</g>
<g>
</g>
<g>
</g>
<g>
</g>
<g>
</g>
<g>
</g>
<g>
</g>
<g>
</g>
<g>
</g>
</svg>
