<?xml version="1.0" encoding="iso-8859-1"?>
<!-- Generator: Adobe Illustrator 16.0.0, SVG Export Plug-In . SVG Version: 6.00 Build 0)  -->
<!DOCTYPE svg PUBLIC "-//W3C//DTD SVG 1.1//EN" "http://www.w3.org/Graphics/SVG/1.1/DTD/svg11.dtd">
<svg version="1.1" id="Capa_1" xmlns="http://www.w3.org/2000/svg" xmlns:xlink="http://www.w3.org/1999/xlink" x="0px" y="0px"
	 width="32.01px" height="32.01px" viewBox="0 0 32.01 32.01" style="enable-background:new 0 0 32.01 32.01;" xml:space="preserve"
	>
<g>
	<path d="M24.497,18.045V8.782l3.725,2.25l-1.188-9.135L23.889,0l-8.636,3.204l5.3,3.199L20.289,6.84h-3.864
		c-0.634-2.864-3.189-5.015-6.241-5.015c-3.526,0-6.396,2.869-6.396,6.396c0,2.99,2.066,5.501,4.845,6.196v3.627
		c0,3.459,2.227,6.401,5.321,7.483v3.105h-3.497v3.377h12.211v-3.377h-3.496v-3.105C22.269,24.449,24.497,21.504,24.497,18.045z
		 M18.604,14.981L21.731,9.8v8.246H11.398V14.5c2.499-0.482,4.481-2.421,5.029-4.896h2.198l-2.385,3.947L18.604,14.981z
		 M11.398,12.923v-3.32h3.446C14.359,11.231,13.047,12.498,11.398,12.923z M5.324,8.222c0-2.681,2.181-4.861,4.861-4.861
		c2.2,0,4.061,1.472,4.658,3.479h-4.827L8.634,8.222v4.602C6.713,12.174,5.324,10.36,5.324,8.222z"/>
</g>
<g>
</g>
<g>
</g>
<g>
</g>
<g>
</g>
<g>
</g>
<g>
</g>
<g>
</g>
<g>
</g>
<g>
</g>
<g>
</g>
<g>
</g>
<g>
</g>
<g>
</g>
<g>
</g>
<g>
</g>
</svg>
