<?xml version="1.0" encoding="iso-8859-1"?>
<!-- Generator: Adobe Illustrator 16.0.0, SVG Export Plug-In . SVG Version: 6.00 Build 0)  -->
<!DOCTYPE svg PUBLIC "-//W3C//DTD SVG 1.1//EN" "http://www.w3.org/Graphics/SVG/1.1/DTD/svg11.dtd">
<svg version="1.1" id="Capa_1" xmlns="http://www.w3.org/2000/svg" xmlns:xlink="http://www.w3.org/1999/xlink" x="0px" y="0px"
	 width="37.071px" height="37.072px" viewBox="0 0 37.071 37.072" style="enable-background:new 0 0 37.071 37.072;"
	 xml:space="preserve">
<g>
	<path d="M36.501,21.594h-4.968c-0.315,0-0.571,0.255-0.571,0.569v0.378c-1.474-1.058-4.361-3.058-5.945-3.657
		c-1.48-0.562-4.053-1.127-6.46-1.127c-2.021,0-3.518,0.387-4.453,1.145c0.182-0.253,0.291-0.531,0.295-0.841l0.023-1.794
		l-0.027,0.017c-0.072-0.421-0.338-0.787-0.737-1.098c0.461-0.357,0.733-0.791,0.741-1.304l0.023-1.795l-0.027,0.017
		c-0.08-0.447-0.373-0.833-0.815-1.157c0.508-0.367,0.813-0.82,0.819-1.363l0.023-1.794l-0.027,0.016
		c-0.058-0.324-0.229-0.615-0.486-0.875c0.309-0.312,0.486-0.671,0.49-1.084l0.023-1.793l-0.027,0.014
		c-0.27-1.509-2.971-2.331-5.653-2.366C5.943,1.664,3.099,2.483,3.003,4.119H3L2.977,5.695c-0.004,0.434,0.182,0.816,0.51,1.146
		c-0.288,0.293-0.461,0.63-0.484,1.014H3.001L2.98,9.431c-0.008,0.562,0.311,1.038,0.838,1.426
		c-0.483,0.351-0.783,0.783-0.812,1.295H3.002L2.98,13.729c-0.006,0.534,0.279,0.992,0.763,1.367
		c-0.438,0.34-0.709,0.752-0.737,1.236H3.003l-0.021,1.577c-0.008,0.501,0.244,0.936,0.676,1.298
		c-0.389,0.326-0.624,0.714-0.65,1.166l-0.003,0.001l-0.011,0.784l-1.438-0.462c-0.156-0.05-0.33-0.031-0.471,0.055
		c-0.142,0.086-0.238,0.229-0.268,0.395l-0.809,4.737c-0.031,0.182,0.026,0.366,0.158,0.5l0.969,0.97l-0.095,1.24
		c-0.021,0.232,0.108,0.453,0.318,0.558c0.252,0.123,6.2,3.01,8.536,3.441c0.662,0.12,1.574,0.184,2.709,0.184
		c4.488,0,11.492-0.965,12.619-1.125l5.74,2.338v0.813c0,0.313,0.256,0.569,0.571,0.569h4.968c0.314,0,0.57-0.255,0.57-0.569V22.165
		C37.071,21.848,36.815,21.594,36.501,21.594z M8.722,3.013c2.861,0.037,4.39,0.943,4.383,1.306
		c-0.002,0.317-1.201,1.022-3.422,1.165C9.372,5.459,9.058,5.443,8.741,5.44c-0.329-0.004-0.66,0.004-0.985,0.022
		C5.504,5.267,4.307,4.523,4.313,4.203C4.313,3.838,5.869,2.974,8.722,3.013z M4.625,7.577c1.08,0.478,2.558,0.735,4.028,0.754
		c1.499,0.018,3.009-0.208,4.105-0.672c0.23,0.154,0.346,0.297,0.344,0.397c0,0.362-1.558,1.227-4.411,1.19
		c-2.857-0.04-4.388-0.943-4.382-1.308C4.309,7.843,4.418,7.714,4.625,7.577z M5.265,11.558c0.99,0.32,2.188,0.495,3.389,0.51
		c1.222,0.015,2.454-0.132,3.461-0.439c0.656,0.263,0.994,0.555,0.988,0.725c0,0.362-1.558,1.228-4.411,1.189
		c-2.857-0.04-4.388-0.943-4.382-1.307C4.311,12.07,4.64,11.799,5.265,11.558z M5.108,15.802c1.016,0.354,2.281,0.545,3.545,0.563
		c1.287,0.017,2.582-0.15,3.617-0.49c0.552,0.244,0.838,0.502,0.832,0.657c0,0.364-1.557,1.229-4.411,1.191
		c-2.857-0.041-4.388-0.945-4.382-1.306C4.309,16.266,4.585,16.026,5.108,15.802z M4.934,19.918
		c1.045,0.396,2.384,0.607,3.719,0.625c1.359,0.019,2.729-0.166,3.79-0.549c0.333,0.167,0.542,0.333,0.622,0.464
		c-0.062,0.138-0.116,0.268-0.161,0.383c-0.488,0.404-1.927,0.95-4.213,0.922c-2.857-0.04-4.388-0.943-4.382-1.308
		C4.309,20.324,4.525,20.121,4.934,19.918z M13.886,23.205c0.32-0.313,0.508-0.683,0.512-1.104v-0.02l3.133,0.119L13.886,23.205z"/>
</g>
<g>
</g>
<g>
</g>
<g>
</g>
<g>
</g>
<g>
</g>
<g>
</g>
<g>
</g>
<g>
</g>
<g>
</g>
<g>
</g>
<g>
</g>
<g>
</g>
<g>
</g>
<g>
</g>
<g>
</g>
</svg>
