<?xml version="1.0" encoding="iso-8859-1"?>
<!-- Generator: Adobe Illustrator 16.0.0, SVG Export Plug-In . SVG Version: 6.00 Build 0)  -->
<!DOCTYPE svg PUBLIC "-//W3C//DTD SVG 1.1//EN" "http://www.w3.org/Graphics/SVG/1.1/DTD/svg11.dtd">
<svg version="1.1" id="Capa_1" xmlns="http://www.w3.org/2000/svg" xmlns:xlink="http://www.w3.org/1999/xlink" x="0px" y="0px"
	 width="43.583px" height="43.583px" viewBox="0 0 43.583 43.583" style="enable-background:new 0 0 43.583 43.583;"
	 xml:space="preserve">
<g>
	<path d="M34.624,37.357l0.871,5.279l-5.705,0.945L29.215,40.1c-1.904,0.59-3.986,0.922-6.174,0.922c-2.26,0-4.411-0.35-6.366-0.979
		l-0.584,3.54l-5.705-0.944l0.896-5.429c-1.82-1.44-3.174-3.213-3.894-5.188H4.292v-6.666h3.153
		c0.613-1.597,1.638-3.058,2.993-4.312l0.688-6.189l5.494,2.665c0.259-0.084,0.529-0.149,0.795-0.224l0.877,2.559h9.167l1.384-2.515
		c6.106,1.762,10.449,6.208,10.449,11.432C39.292,32.118,37.508,35.146,34.624,37.357z M30.292,8.5c0-4.687-3.812-8.5-8.5-8.5
		c-4.687,0-8.5,3.813-8.5,8.5s3.813,8.5,8.5,8.5C26.479,17,30.292,13.188,30.292,8.5z M27.292,8.5c0,3.033-2.468,5.5-5.5,5.5
		s-5.5-2.467-5.5-5.5s2.468-5.5,5.5-5.5S27.292,5.468,27.292,8.5z M19.721,6.29c0,2.572,2.764,2.662,2.764,4.513
		c0,0.643-0.282,0.874-0.732,0.874c-0.45,0-0.733-0.231-0.733-0.874v-0.708h-1.337v0.617c0,1.222,0.514,2.006,1.529,2.212v0.655
		h1.157v-0.655c1.003-0.206,1.53-0.991,1.53-2.212c0-2.572-2.767-2.662-2.767-4.513c0-0.643,0.257-0.887,0.708-0.887
		c0.451,0,0.707,0.244,0.707,0.887v0.373h1.34V6.289c0-1.222-0.517-1.993-1.52-2.199V3.421h-1.156v0.668
		C20.223,4.31,19.721,5.081,19.721,6.29z"/>
</g>
<g>
</g>
<g>
</g>
<g>
</g>
<g>
</g>
<g>
</g>
<g>
</g>
<g>
</g>
<g>
</g>
<g>
</g>
<g>
</g>
<g>
</g>
<g>
</g>
<g>
</g>
<g>
</g>
<g>
</g>
</svg>
