<?xml version="1.0" encoding="iso-8859-1"?>
<!-- Generator: Adobe Illustrator 16.0.0, SVG Export Plug-In . SVG Version: 6.00 Build 0)  -->
<!DOCTYPE svg PUBLIC "-//W3C//DTD SVG 1.1//EN" "http://www.w3.org/Graphics/SVG/1.1/DTD/svg11.dtd">
<svg version="1.1" id="Capa_1" xmlns="http://www.w3.org/2000/svg" xmlns:xlink="http://www.w3.org/1999/xlink" x="0px" y="0px"
	 width="36.434px" height="36.434px" viewBox="0 0 36.434 36.434" style="enable-background:new 0 0 36.434 36.434;"
	 xml:space="preserve">
<g>
	<path d="M9.241,19.796v-4.247h4.088v6.396l-0.016,0.011l-2.95-2.86L9.241,19.796z M17.95,19.134v-6.073h-4.088v8.561L17.95,19.134z
		 M8.708,20.13v-6.355H4.621v8.91L8.708,20.13z M22.07,16.628l0.5,0.571v-7.16h-4.086v8.771L22.07,16.628z M23.587,18.362
		l3.604-3.562v-2.539l-0.801-0.799h0.801V7.906h-4.088v9.901L23.587,18.362z M31.812,11.462V5.24h-4.087v6.222H31.812z
		 M28.469,13.537l-0.743-0.743v1.478L28.469,13.537z M3.083,23.647l1.005-0.629v-5.692H0v15.996h4.088v-8.069L3.083,23.647z
		 M27.726,21.019v12.305h4.087V16.981L27.726,21.019z M23.333,25.358l-0.229-0.262v8.227h4.088V21.546L23.333,25.358z M5.626,27.714
		l-1.005-1.607v7.217h4.087V25.79L5.626,27.714z M32.346,3.11v8.354h1.866v7.818l-1.866-1.866v15.906h4.088V3.11H32.346L32.346,3.11
		z M21.117,22.824l-2.634,1.603v8.896h4.087v-8.836L21.117,22.824z M12.636,27.983l-2.915-2.826l-0.479,0.299v7.867h4.088v-5.762
		L12.636,27.983z M13.863,27.237v6.084h4.088v-8.57L13.863,27.237z"/>
</g>
<g>
</g>
<g>
</g>
<g>
</g>
<g>
</g>
<g>
</g>
<g>
</g>
<g>
</g>
<g>
</g>
<g>
</g>
<g>
</g>
<g>
</g>
<g>
</g>
<g>
</g>
<g>
</g>
<g>
</g>
</svg>
